<svg version="1.1" id="Layer_1" xmlns="http://www.w3.org/2000/svg" xmlns:xlink="http://www.w3.org/1999/xlink" x="0px" y="0px"
	 width="100%" viewBox="0 0 768 256" enable-background="new 0 0 768 256" xml:space="preserve">
<path fill="#010101" opacity="1.000000" stroke="none" 
	d="
M515.000000,257.000000 
	C343.375092,257.000000 172.250183,257.000000 1.062637,257.000000 
	C1.062637,171.729279 1.062637,86.458504 1.062637,1.093864 
	C257.000000,1.093864 513.000000,1.093864 768.968872,1.093864 
	C768.968872,86.416527 768.968872,171.708267 768.968872,257.000000 
	C684.458435,257.000000 599.979248,257.000000 515.000000,257.000000 
M356.545837,211.680847 
	C357.083527,210.743973 357.621216,209.807098 357.635620,209.782013 
	C357.394531,209.731842 356.273926,209.498657 354.547638,209.010376 
	C353.775299,208.732773 353.002960,208.455170 352.895905,207.823517 
	C354.747589,207.378525 356.599274,206.933548 358.388275,206.503616 
	C357.772583,206.272095 357.007904,205.984543 355.338287,205.356705 
	C357.370422,203.826019 358.887604,202.683212 360.404785,201.540405 
	C358.723083,200.667542 357.566101,201.003937 356.386749,201.127808 
	C354.795746,201.294937 353.154663,201.520554 351.598907,201.290024 
	C350.647675,201.149063 349.816254,200.199646 348.931000,199.613327 
	C348.298248,200.844330 347.237732,202.043243 347.142334,203.314560 
	C347.026489,204.858734 347.724670,206.463959 347.326721,208.082321 
	C347.091034,208.160599 346.855377,208.238861 346.521149,208.358093 
	C346.521149,208.358093 346.415771,208.341003 345.671265,208.229691 
	C340.393951,210.664948 345.657532,214.850891 343.571289,217.751846 
	C349.579803,219.209335 347.719208,215.015091 348.757263,212.711395 
	C349.445953,212.708160 350.134613,212.704910 351.585144,213.093094 
	C353.054962,212.726822 354.524780,212.360565 356.545837,211.680847 
M456.538910,204.928391 
	C455.734589,204.628204 454.930267,204.328018 453.677887,203.347778 
	C452.963745,202.185089 452.249573,201.022385 451.535431,199.859695 
	C450.864288,200.522247 450.193176,201.184784 448.691345,201.981430 
	C445.966278,201.981430 443.241211,201.981430 441.318115,201.981430 
	C441.639648,206.346313 441.917572,210.119324 441.769806,214.444794 
	C440.970520,214.964508 440.171265,215.484222 440.071960,215.548782 
	C442.926819,217.809021 445.557251,219.891602 448.628540,222.323181 
	C448.894104,222.175659 450.016785,221.552017 451.620728,221.105591 
	C451.992645,221.434860 452.364532,221.764130 452.919769,222.694122 
	C453.280548,222.799774 453.641327,222.905426 454.773468,223.072693 
	C455.510620,221.046463 456.247772,219.020233 457.440186,216.345718 
	C458.471924,216.148376 459.503662,215.951035 459.219177,216.005447 
	C459.072632,215.734787 458.549377,214.768280 458.865051,213.904861 
	C459.242401,211.844543 459.460510,209.738602 460.034393,207.734558 
	C460.899017,204.715454 459.075317,204.936371 456.538910,204.928391 
M521.048157,207.278885 
	C521.134277,206.523071 521.220398,205.767242 521.903015,204.499863 
	C524.502991,204.170837 527.102905,203.841827 530.999207,203.348770 
	C526.592041,200.682770 521.281921,204.153961 519.251892,199.046219 
	C519.227783,198.985413 517.664490,199.239838 517.588623,199.540802 
	C516.561768,203.617706 513.410950,202.185486 510.290955,201.959518 
	C509.747040,202.428619 508.760254,202.868622 508.727173,203.371307 
	C508.363251,208.907318 508.147614,214.453064 507.891846,219.996185 
	C508.108521,220.114120 508.325195,220.232056 508.541870,220.349991 
	C509.401917,218.572128 510.261963,216.794281 511.598816,215.033478 
	C511.598816,215.033478 512.074585,215.071304 512.074585,215.071304 
	C512.074585,215.071304 512.549255,215.021317 512.699402,215.894394 
	C512.688538,217.517532 512.631104,219.141968 512.676636,220.763519 
	C512.767822,224.010223 514.382996,223.190918 516.889648,222.013580 
	C519.166626,221.677917 521.443604,221.342270 524.037720,221.681458 
	C525.014771,221.978958 525.991821,222.276474 526.968872,222.573975 
	C527.290771,219.742538 527.748047,216.911652 527.759399,214.078964 
	C527.760742,213.733780 525.365601,213.378998 523.383728,213.004349 
	C522.685852,213.000931 521.988037,212.997528 521.055298,212.260773 
	C521.157227,211.511383 521.259216,210.762009 522.203918,210.025864 
	C524.658569,209.902832 527.113220,209.779800 529.567932,209.656769 
	C529.495361,208.922318 529.422791,208.187866 529.350220,207.453415 
	C526.682068,207.631348 524.013855,207.809296 521.048157,207.278885 
M389.704468,208.326050 
	C389.040863,206.335342 388.377258,204.344650 387.334717,201.217285 
	C385.358154,206.656311 383.740936,211.106476 382.123749,215.556625 
	C384.159576,214.791870 385.185760,213.400787 386.365051,212.154541 
	C387.072144,211.407303 388.018280,210.886276 388.894989,210.973618 
	C390.307343,213.424759 391.719696,215.875885 393.407074,218.804306 
	C394.760681,217.171326 395.451294,216.338181 395.970612,215.711670 
	C393.817017,213.367752 391.836212,211.211884 389.704468,208.326050 
M378.775482,216.214890 
	C378.823212,214.727234 379.113800,213.191803 378.833954,211.768539 
	C378.644684,210.805862 377.652496,210.001022 377.019409,209.125595 
	C376.607086,210.041641 375.954712,210.925995 375.828705,211.879868 
	C375.490112,214.443130 377.235840,217.587097 373.479218,219.176163 
	C373.179077,219.303116 373.693573,221.355850 373.893982,223.063019 
	C375.686462,220.992676 376.865662,219.630692 378.514069,218.865967 
	C382.184845,224.642487 388.068207,222.066879 393.077179,222.535126 
	C394.080505,222.628922 395.248993,220.955475 396.341309,220.096863 
	C392.992218,219.334946 390.151123,219.910690 387.427338,219.564270 
	C384.444031,219.184845 381.569000,217.953979 378.775482,216.214890 
M452.179108,107.673492 
	C452.007080,108.106865 451.835083,108.540245 451.524475,108.052963 
	C450.520264,108.310867 449.009094,108.241234 448.595795,108.880928 
	C446.275818,112.471642 443.930878,116.101402 442.164948,119.977745 
	C440.713715,123.163338 440.057434,126.711075 439.034912,130.782303 
	C438.874786,131.207687 438.714691,131.633072 437.974304,132.393478 
	C438.072601,136.261642 435.166931,138.533066 433.329529,141.423798 
	C430.202393,146.343781 427.127716,151.338989 424.566681,156.565094 
	C422.008728,161.784851 420.108154,167.326752 417.390900,173.024567 
	C415.414948,176.393845 418.646576,175.390976 419.919159,176.766724 
	C421.023254,177.488251 422.127319,178.209778 423.335175,179.505386 
	C424.233429,179.770905 425.131714,180.036423 426.411652,180.900497 
	C427.600464,181.444290 428.789307,181.988068 430.655670,182.678909 
	C431.081512,182.843307 431.507324,183.007706 432.339233,183.804169 
	C433.559479,183.882629 434.779724,183.961090 436.614166,184.111084 
	C436.665894,183.746033 436.717651,183.380966 436.941772,182.264709 
	C440.143890,174.980057 443.275787,167.663437 446.571533,160.421417 
	C448.968719,155.153931 451.558563,149.973282 454.106262,144.775375 
	C456.701721,139.480042 459.350677,134.210953 462.645630,128.801971 
	C465.460480,126.212814 468.275299,123.623657 471.680206,120.781853 
	C472.499268,119.305145 473.318329,117.828430 474.703003,115.937500 
	C475.642914,114.219658 476.500397,112.449173 477.552032,110.802696 
	C478.240570,109.724724 479.210205,108.826302 480.062225,108.546013 
	C483.160370,112.295486 486.070984,116.359116 491.823273,115.154427 
	C491.943878,116.723495 492.030853,117.855103 491.433289,119.158241 
	C490.288330,119.529747 489.143372,119.901253 487.292084,120.199951 
	C485.427490,121.889763 481.701477,124.397652 482.022064,125.127136 
	C483.376862,128.209793 485.448914,131.522064 488.198090,133.287521 
	C490.737854,134.918427 494.475647,134.683762 498.847961,135.483261 
	C497.569458,137.602554 496.631256,140.855667 495.320587,141.013367 
	C491.315338,141.495331 487.076141,141.231125 483.098541,140.420425 
	C478.824768,139.549377 474.744202,137.730148 470.579346,136.324661 
	C470.197327,136.614166 469.815308,136.903671 469.433319,137.193161 
	C470.883026,139.532898 472.198792,141.969406 473.806732,144.194778 
	C479.363770,151.885788 487.202087,153.237000 496.146606,151.124420 
	C496.442596,155.133179 496.681213,158.364548 496.978851,162.395523 
	C495.017822,162.134354 493.501709,161.932419 492.101593,161.946121 
	C492.101593,161.946121 491.884094,161.859329 491.884094,161.859329 
	C491.884094,161.859329 492.147522,161.820023 492.226288,162.705109 
	C486.474548,161.841003 480.722839,160.976913 475.183533,160.144730 
	C473.709473,162.227325 472.225830,164.323456 470.616394,166.597351 
	C475.144104,173.553864 480.497345,179.558929 488.945007,181.989639 
	C489.841187,180.082504 490.523712,178.629974 490.759644,178.127899 
	C512.991089,175.021561 534.906189,174.501831 554.391785,160.969467 
	C552.400635,160.214355 550.355835,159.249191 548.204102,158.714340 
	C547.318176,158.494156 546.006653,159.708084 545.220825,159.405960 
	C536.796692,156.167313 528.363159,157.098389 519.791443,158.719101 
	C512.113647,160.170776 510.919312,158.537888 513.261780,151.351364 
	C522.906799,150.896027 532.408752,150.447449 542.140198,149.988037 
	C540.646545,143.556839 536.069092,140.400177 530.839722,140.611023 
	C525.237183,140.836929 519.618408,140.661987 513.972656,140.661987 
	C513.390869,138.158295 512.773254,135.500397 511.981476,132.092987 
	C516.565552,132.092987 520.908264,132.126205 525.250122,132.080643 
	C527.898315,132.052841 530.640259,132.301880 533.166748,131.699646 
	C535.808350,131.069992 537.397034,131.277985 539.744873,133.156860 
	C543.254272,135.965210 547.743591,137.549026 551.816101,139.653748 
	C552.492859,137.360123 552.591248,136.085022 552.018005,135.593796 
	C546.318970,130.710342 541.136475,125.523178 538.162109,118.372643 
	C537.296021,116.290672 535.076416,114.771721 533.376953,112.883224 
	C536.391541,111.185562 538.274414,110.125221 540.157227,109.064888 
	C540.015259,108.634705 539.873230,108.204529 539.731262,107.774353 
	C535.840759,107.774353 531.930420,108.022057 528.064758,107.712250 
	C523.125122,107.316383 518.229431,105.999794 513.300903,105.917824 
	C503.332306,105.752045 493.352875,106.099937 483.382233,106.386948 
	C482.247711,106.419601 481.140961,107.417442 479.179504,107.535355 
	C479.320557,106.083153 479.461639,104.630951 479.633972,103.019203 
	C479.633972,103.019203 479.645416,102.857025 480.023193,102.363708 
	C480.191681,101.568085 480.360168,100.772461 480.881012,99.368431 
	C480.898804,98.906738 480.916595,98.445045 481.310028,97.356834 
	C481.545441,95.906525 481.780823,94.456215 482.787598,92.973320 
	C489.529419,94.634895 496.271240,96.296478 503.617615,98.297394 
	C504.750610,98.419090 505.883636,98.540787 507.923706,98.903503 
	C513.944824,98.851387 519.966003,98.799271 526.736633,98.949066 
	C528.884460,98.524536 531.032349,98.100006 534.038208,97.622253 
	C542.745056,97.962227 546.330750,92.110748 549.653259,85.344978 
	C552.277100,80.001862 556.011353,75.213882 558.878479,69.974663 
	C559.810486,68.271500 560.297913,65.687027 559.730469,63.906704 
	C556.503540,53.782204 549.729919,46.601032 539.910706,41.318310 
	C538.269226,40.633926 536.627747,39.949539 534.523315,38.784695 
	C533.279236,38.398411 532.035217,38.012123 530.292725,37.070122 
	C526.851746,36.279987 523.410767,35.489853 519.370544,34.322922 
	C518.922974,34.424133 518.475342,34.525341 517.231079,34.331223 
	C508.477509,35.798168 499.723938,37.265114 490.473755,38.259693 
	C489.812805,38.115658 489.151825,37.971622 488.091003,37.294056 
	C487.052307,37.037018 486.013641,36.779984 484.444427,36.074074 
	C483.762604,35.992222 483.080811,35.910370 482.108215,35.326515 
	C480.419678,35.923782 478.731110,36.521053 476.369965,36.964691 
	C475.910461,36.984627 475.450989,37.004566 474.740814,36.320095 
	C473.042572,37.167206 471.344360,38.014313 468.965820,38.867718 
	C467.975708,39.462021 466.985596,40.056320 466.131561,40.568951 
	C467.314636,42.739651 468.214172,44.390049 468.497650,46.073727 
	C468.146729,46.724606 467.795807,47.375484 466.936920,48.719654 
	C467.314606,51.153755 467.692291,53.587856 467.666870,56.609238 
	C465.028137,67.040016 462.389374,77.470795 459.295776,88.382179 
	C459.183197,89.250946 459.070618,90.119713 458.449738,91.499023 
	C457.244385,95.090317 456.203156,98.749504 454.758575,102.241844 
	C454.117981,103.790459 452.662140,105.001846 451.748871,105.797539 
	C451.664764,105.628960 451.580627,105.460381 451.496521,105.291801 
	C451.478638,105.689247 451.460724,106.086693 452.179108,107.673492 
M418.613800,211.047897 
	C414.812042,208.695068 419.298492,207.547638 419.405426,205.753067 
	C419.467102,204.718323 420.262207,203.116089 419.874512,202.793259 
	C419.072052,202.125061 417.686859,201.879776 416.565155,201.936066 
	C414.827850,202.023254 413.110474,202.508224 411.362732,202.828552 
	C412.878693,203.250519 414.639923,203.740753 415.301788,203.924988 
	C418.638763,210.608734 407.022827,209.992630 410.886261,216.551285 
	C410.025848,217.217148 409.218201,217.842178 408.410522,218.467209 
	C408.698242,218.762131 408.985931,219.057053 409.273621,219.351959 
	C410.134583,218.370789 410.914032,217.300079 411.873352,216.426987 
	C413.894745,214.587219 415.417389,211.612076 419.686523,213.390991 
	C424.910553,216.758087 417.841522,218.234634 418.759583,221.810684 
	C420.914520,219.830154 422.756714,218.137054 424.680511,216.368942 
	C425.798889,217.103775 427.119812,217.971695 428.575134,218.927917 
	C428.832581,218.139282 429.222229,217.594696 429.091919,217.242493 
	C428.021210,214.349060 424.292419,212.200348 426.674652,208.357513 
	C425.677246,207.770432 424.679871,207.183350 423.598389,206.546783 
	C423.350433,208.702789 423.171295,210.260208 422.974213,211.973755 
	C421.462646,211.712921 420.339111,211.519028 418.613800,211.047897 
M475.634247,223.135849 
	C476.047943,222.761093 476.461639,222.386322 477.096710,221.101410 
	C477.096710,216.996750 477.096710,212.892090 477.096710,207.918655 
	C479.544525,208.812241 481.198395,209.416000 483.261261,210.169067 
	C483.647461,207.122284 483.991364,204.409027 484.335266,201.695786 
	C484.778809,201.683960 485.222351,201.672134 485.665894,201.660309 
	C485.960999,202.814438 486.387756,203.954071 486.516663,205.126480 
	C486.665344,206.478821 486.551208,207.860046 486.551208,207.814041 
	C489.311218,209.063721 492.045410,209.480255 492.354980,210.579559 
	C493.969543,216.312866 492.540588,219.425415 487.482483,220.071152 
	C490.221191,221.310730 491.953094,222.094620 493.685059,222.878510 
	C494.398529,220.888336 495.588470,218.931168 495.729095,216.901306 
	C496.049774,212.272156 495.705627,207.600052 495.931488,202.959976 
	C496.055084,200.421188 495.391113,200.160904 492.913849,200.301132 
	C486.726868,200.651337 480.506775,200.416580 473.962006,200.416580 
	C473.962006,205.679031 473.866180,211.138046 474.010010,216.590714 
	C474.066101,218.716812 474.661591,220.828674 475.634247,223.135849 
M584.131897,131.025269 
	C581.323792,131.041748 578.457336,130.731903 575.733215,131.218536 
	C574.457153,131.446503 572.540771,133.176636 572.498352,134.286453 
	C572.361877,137.861801 572.962036,141.465286 573.100403,145.833710 
	C573.092041,146.894440 573.083679,147.955154 572.521973,149.582748 
	C572.040344,154.336044 571.115173,159.094604 571.171448,163.841522 
	C571.281494,173.106674 575.666199,178.199158 583.946716,178.742889 
	C587.613647,178.670959 591.280640,178.599030 595.723145,178.801086 
	C597.926941,178.270966 600.130676,177.740829 602.989319,177.239105 
	C603.643799,177.212952 604.298279,177.186798 605.450806,177.570908 
	C609.006348,176.502533 613.402710,176.799561 614.836548,171.161667 
	C614.858948,170.102554 614.881409,169.043457 615.071106,167.168274 
	C615.666443,159.941330 616.704285,152.715149 616.716919,145.487183 
	C616.726990,139.719543 613.898071,135.086349 607.623901,132.916595 
	C607.623901,132.916595 607.249634,132.852463 606.941589,132.164551 
	C600.446350,129.098236 593.761108,129.607040 586.363037,131.031052 
	C585.924744,131.082916 585.486389,131.134781 584.131897,131.025269 
M209.334076,108.295204 
	C208.550964,109.185898 207.767838,110.076591 206.702133,111.548767 
	C205.246643,114.380394 203.791153,117.212029 202.118958,120.747543 
	C204.284393,127.303574 207.966904,129.699661 214.682098,129.305344 
	C216.038132,129.225723 217.453445,130.155533 218.863052,131.285065 
	C216.170303,136.192734 213.647430,141.204239 210.730988,145.975159 
	C208.401810,149.785431 208.594452,153.403229 212.110535,156.702148 
	C213.367004,161.689865 218.381897,161.957489 221.773788,164.223267 
	C222.353088,164.610260 224.082581,164.040237 224.762619,163.379272 
	C227.719116,160.505798 230.811066,157.678818 233.259735,154.392334 
	C242.150146,142.460007 250.801682,130.349701 259.811829,117.936623 
	C263.462524,124.523575 266.752350,131.142746 266.988800,139.060486 
	C267.195770,145.991531 267.901886,152.918808 268.657959,159.818100 
	C269.103394,163.882767 268.120270,164.987793 264.055817,163.883759 
	C260.217438,162.841080 256.451508,161.494354 252.572403,160.658798 
	C251.211426,160.365616 249.034531,160.680725 248.216003,161.597870 
	C244.635101,165.610275 246.050735,173.034378 251.214310,175.432343 
	C256.416656,177.848343 261.956055,179.923447 267.567749,180.984009 
	C276.247589,182.624420 280.419830,178.536163 280.230042,169.754166 
	C280.212067,168.922272 280.226288,168.083679 280.124908,167.260590 
	C279.461945,161.878738 280.710999,157.157639 284.250397,152.884537 
	C285.645447,151.200348 286.387726,148.826370 286.971008,146.644547 
	C289.579712,136.886063 285.017426,128.588409 280.496185,120.774887 
	C277.340271,115.320938 272.291779,110.962128 268.177307,106.216400 
	C271.008881,101.784508 274.121277,96.913116 277.385254,91.804466 
	C276.257935,91.539886 275.568054,91.377983 275.376617,91.333054 
	C275.513062,89.123047 276.482849,86.578705 275.612610,85.175171 
	C272.288300,79.813507 263.900604,79.407433 259.430145,84.071289 
	C257.012177,86.593880 254.433823,89.045914 252.475067,91.904739 
	C249.955887,95.581528 247.251068,95.568459 244.098267,93.201828 
	C239.066833,89.425034 234.009949,90.529976 229.173843,93.288773 
	C225.260239,95.521317 221.652710,98.290443 217.169540,100.839020 
	C214.738861,103.224037 212.308197,105.609047 209.334076,108.295204 
M326.880096,108.626358 
	C314.519928,99.751556 302.159760,90.876747 289.799591,82.001938 
	C289.396820,82.463493 288.994049,82.925049 288.591278,83.386604 
	C289.124176,84.432686 289.657104,85.478760 290.210876,86.565773 
	C285.929749,87.698410 281.388306,94.668655 282.756897,98.281708 
	C283.555206,100.389259 285.141052,102.235504 286.538757,104.072899 
	C294.291534,114.264404 302.159027,124.369881 309.782776,134.656372 
	C310.542999,135.682083 310.373993,138.932770 309.879791,139.116501 
	C304.370056,141.165283 299.811798,146.662003 292.830322,143.864517 
	C298.362671,154.384506 306.861450,160.987396 317.460480,165.131882 
	C318.915070,165.700668 320.660156,166.990128 321.823059,166.602600 
	C329.075806,164.185608 336.167542,161.162186 340.904602,154.828888 
	C342.097168,153.234451 342.251709,150.247391 341.779663,148.148529 
	C340.695892,143.329865 339.179993,138.568008 337.390717,133.957260 
	C334.171021,125.660767 330.622040,117.492058 326.880096,108.626358 
M409.563019,131.903687 
	C409.359589,127.328735 410.002380,122.472107 408.611176,118.292511 
	C407.867371,116.057945 403.728821,114.689995 400.864929,113.619934 
	C400.195435,113.369797 398.606720,116.084633 397.210083,117.125626 
	C395.959381,118.057846 394.438202,119.024017 392.953979,119.177139 
	C386.705383,119.821815 380.425934,120.167564 373.796753,120.648918 
	C373.747955,119.793274 373.597992,117.666847 373.510162,115.537857 
	C373.062469,104.686432 371.077454,104.912994 361.899658,100.582230 
	C360.851501,100.087631 357.469879,101.713814 357.506958,102.164291 
	C358.131165,109.747192 355.733917,117.734695 360.984711,124.775787 
	C362.786133,127.191422 364.238708,131.004837 363.705231,133.764999 
	C362.843781,138.222229 360.035156,142.272354 358.408722,146.628754 
	C357.819580,148.206757 357.533905,150.660645 358.352753,151.880417 
	C364.609192,161.199890 371.468964,169.996948 382.644135,173.924805 
	C384.175232,174.462952 385.993896,175.322235 387.381500,174.942947 
	C395.808990,172.639343 403.005554,168.234451 409.446808,161.061066 
	C400.555359,160.333160 392.435883,159.550079 384.299316,159.038834 
	C377.480988,158.610443 374.536652,154.096848 378.091492,148.430206 
	C383.282837,140.154922 389.911407,134.194809 400.873199,135.318634 
	C403.534363,135.591476 406.430573,133.572144 409.563019,131.903687 
M390.902252,104.184158 
	C391.655609,103.940346 392.642029,103.261490 393.125916,103.520706 
	C397.487061,105.856956 398.168091,102.397919 399.277954,99.705429 
	C399.864960,98.281380 400.405029,96.797523 400.668243,95.288673 
	C401.262207,91.884239 401.901459,88.129822 398.368134,86.031967 
	C395.898254,84.565521 392.846985,84.078262 388.805939,82.739799 
	C385.854980,85.270081 381.774872,88.310226 378.362518,91.972534 
	C377.332855,93.077629 377.601959,96.121681 378.279999,97.893364 
	C379.025238,99.840729 380.680145,101.674500 382.388245,102.961014 
	C384.654297,104.667793 386.976654,107.541039 390.902252,104.184158 
M403.353607,96.344429 
	C405.554260,102.120338 410.093811,105.444908 416.221588,108.375664 
	C417.902649,103.493195 420.126953,98.878632 420.970215,94.024162 
	C421.698975,89.828987 417.670410,86.777908 412.210236,85.774666 
	C407.887634,84.980438 406.200562,87.516052 405.028809,90.895493 
	C404.487366,92.456955 404.087860,94.067619 403.353607,96.344429 
M283.908752,220.047775 
	C283.093170,219.030792 282.277588,218.013824 281.263885,216.749786 
	C283.140808,216.264313 284.284424,215.968521 285.964050,215.534103 
	C283.942291,213.215683 280.641510,211.885345 284.819702,208.696823 
	C287.180054,206.895569 284.900482,201.344666 281.956421,200.140945 
	C282.183075,203.132919 283.303101,206.715454 279.027283,206.294083 
	C278.700714,208.728928 278.413544,210.870087 278.144012,212.879745 
	C278.846588,214.742569 279.605591,216.795135 280.394043,218.836349 
	C281.679199,222.163605 284.239990,223.235748 287.551758,222.627853 
	C290.815277,222.028824 293.169952,220.238434 293.050537,216.660431 
	C292.953857,213.764023 291.595673,211.543915 288.018005,210.951996 
	C291.373077,217.014954 290.470917,219.259171 283.908752,220.047775 
M324.873535,209.279587 
	C323.377472,212.597397 321.881409,215.915222 320.571655,218.819885 
	C324.130463,218.924011 327.687195,216.328537 328.177582,212.231857 
	C328.604340,208.667175 327.194519,206.604858 323.231171,206.337189 
	C323.824890,207.275024 324.261444,207.964600 324.873535,209.279587 
M343.857819,220.545853 
	C342.571808,220.401596 341.285828,220.257355 339.999817,220.113098 
	C339.999817,221.273972 339.999817,222.434830 339.999817,224.722504 
	C341.987885,222.938812 342.921600,222.101059 343.857819,220.545853 
z"/>
<path fill="#FFFFFF" opacity="1.000000" stroke="none" 
	d="
M474.991486,37.024498 
	C475.450989,37.004566 475.910461,36.984627 476.914978,37.281788 
	C479.106293,37.008759 480.752655,36.418636 482.398987,35.828514 
	C483.080811,35.910370 483.762604,35.992222 484.827576,36.628086 
	C486.304138,37.397263 487.397491,37.612423 488.490875,37.827583 
	C489.151825,37.971622 489.812805,38.115658 490.890320,38.805588 
	C494.518005,39.246067 497.900208,39.748920 500.903503,38.904419 
	C506.577362,37.308987 513.318542,39.920013 518.027771,34.626549 
	C518.475342,34.525341 518.922974,34.424133 519.812866,34.816868 
	C523.767151,36.082489 527.279114,36.854164 530.791138,37.625839 
	C532.035217,38.012123 533.279236,38.398411 534.824829,39.368523 
	C536.839172,40.599220 538.552063,41.246094 540.264893,41.892967 
	C549.729919,46.601032 556.503540,53.782204 559.730469,63.906704 
	C560.297913,65.687027 559.810486,68.271500 558.878479,69.974663 
	C556.011353,75.213882 552.277100,80.001862 549.653259,85.344978 
	C546.330750,92.110748 542.745056,97.962227 533.424072,97.268295 
	C530.210938,96.316246 527.078552,93.732887 525.987122,98.747147 
	C519.966003,98.799271 513.944824,98.851387 507.395081,98.466537 
	C505.582001,98.005737 504.297546,97.981895 503.013062,97.958054 
	C496.271240,96.296478 489.529419,94.634895 482.042969,93.017982 
	C480.247284,93.943466 479.196167,94.824287 478.145081,95.705109 
	C479.074860,96.464516 480.004608,97.223930 480.934357,97.983353 
	C480.916595,98.445045 480.898804,98.906738 480.364136,99.802986 
	C479.779999,101.110703 479.712708,101.983864 479.645416,102.857025 
	C479.645416,102.857025 479.633972,103.019203 479.231445,103.029411 
	C477.440918,102.500931 476.052917,101.962242 475.138245,101.607262 
	C474.791748,106.711723 474.464569,111.531715 474.137360,116.351715 
	C473.318329,117.828430 472.499268,119.305145 471.018372,120.921387 
	C466.914001,122.992828 461.835144,123.182205 461.976196,128.930374 
	C459.350677,134.210953 456.701721,139.480042 454.106262,144.775375 
	C451.558563,149.973282 448.968719,155.153931 446.571533,160.421417 
	C443.275787,167.663437 440.143890,174.980057 436.668640,182.760834 
	C436.174438,183.472717 436.042603,183.733582 435.999969,184.039551 
	C434.779724,183.961090 433.559479,183.882629 432.142792,183.193863 
	C431.706390,182.196289 431.466431,181.809021 431.226440,181.421753 
	C430.810333,181.791809 430.394226,182.161835 429.978119,182.531860 
	C428.789307,181.988068 427.600464,181.444290 426.125793,180.333221 
	C424.970398,179.487732 424.100922,179.209503 423.231415,178.931290 
	C422.127319,178.209778 421.023254,177.488251 420.216339,176.200104 
	C421.571228,175.039505 422.713837,174.556931 423.669250,173.828705 
	C425.773743,172.224564 424.968353,171.352234 422.849121,170.587326 
	C424.342834,167.152908 425.793549,164.085739 427.602814,161.010498 
	C431.226318,159.611481 433.627625,157.814880 431.454865,153.464401 
	C435.293121,144.791840 439.014069,136.469589 443.066742,128.004852 
	C446.043213,125.139969 448.862427,122.560768 451.262482,119.637451 
	C452.549744,118.069504 453.116211,115.909767 454.057800,113.661156 
	C454.410583,111.363625 454.713501,109.422012 455.236572,107.252014 
	C457.464294,103.036491 459.549194,99.085747 461.450287,95.048447 
	C462.583344,92.642281 461.490997,91.298843 458.958069,90.988480 
	C459.070618,90.119713 459.183197,89.250946 459.902100,88.122345 
	C461.239716,87.053116 462.384766,86.354073 462.634888,85.416336 
	C464.193451,79.573067 465.753265,73.715492 466.904266,67.783417 
	C467.651459,63.932510 467.705444,59.947102 468.070007,56.021954 
	C467.692291,53.587856 467.314606,51.153755 467.487000,48.378567 
	C468.395966,47.371799 468.754822,46.706123 469.113678,46.040443 
	C468.214172,44.390049 467.314636,42.739651 466.131561,40.568951 
	C466.985596,40.056320 467.975708,39.462021 469.678040,38.889137 
	C471.924011,38.281868 473.457733,37.653183 474.991486,37.024498 
M482.536743,60.429707 
	C481.700836,60.991520 480.087341,61.932255 480.148193,62.057098 
	C480.827148,63.450432 481.764648,64.717789 482.859375,66.926064 
	C482.772705,70.580261 482.858582,74.249405 482.543823,77.883842 
	C482.299988,80.699036 483.368958,81.777969 486.071472,81.959610 
	C499.118683,82.836540 512.154053,83.918243 525.211121,84.583618 
	C526.938782,84.671654 529.509705,83.238228 530.412476,81.739731 
	C533.436401,76.720154 535.881042,71.351562 538.699890,65.817429 
	C520.179443,60.554440 501.527374,61.352753 482.536743,60.429707 
M533.593811,51.381840 
	C533.303894,51.473083 533.000671,51.537338 532.730896,51.669624 
	C532.631287,51.718456 532.610291,51.927479 532.553406,52.063435 
	C534.933289,52.518085 537.313110,52.972736 539.692993,53.427383 
	C539.751099,52.823574 539.809143,52.219761 539.867249,51.615948 
	C537.992493,51.615948 536.117798,51.615948 533.593811,51.381840 
M545.511047,54.190815 
	C544.625916,54.066620 543.740784,53.942425 542.855652,53.818233 
	C542.844421,54.274593 542.833252,54.730957 542.822083,55.187317 
	C543.795471,55.035206 544.768860,54.883091 545.511047,54.190815 
M513.901794,47.267467 
	C513.956848,47.767567 514.011902,48.267666 514.066956,48.767769 
	C514.514648,48.652706 514.962402,48.537643 515.410095,48.422565 
	C515.107117,47.995518 514.804138,47.568470 513.901794,47.267467 
M438.320465,166.465134 
	C437.977844,167.016876 437.635223,167.568619 437.292572,168.120346 
	C437.568268,168.254639 437.843933,168.388947 438.119629,168.523254 
	C438.327667,167.984390 438.535706,167.445526 438.320465,166.465134 
M440.736389,162.899765 
	C440.234955,162.955917 439.733521,163.012054 439.232086,163.068207 
	C439.346283,163.516983 439.460480,163.965759 439.574677,164.414520 
	C440.003448,164.109879 440.432220,163.805222 440.736389,162.899765 
M520.604126,48.799164 
	C520.211548,48.794899 519.819031,48.790630 519.426453,48.786366 
	C519.424927,48.949326 519.412476,49.253929 519.423401,49.254776 
	C519.814087,49.284946 520.206909,49.286716 520.604126,48.799164 
M467.045959,118.686897 
	C466.902466,118.924164 466.758942,119.161430 466.615448,119.398697 
	C466.860138,119.486259 467.104858,119.573814 467.349579,119.661377 
	C467.390594,119.309105 467.431641,118.956833 467.045959,118.686897 
M533.473328,83.382454 
	C533.530579,83.159653 533.587830,82.936852 533.645081,82.714043 
	C533.503967,82.857651 533.362915,83.001259 533.473328,83.382454 
M535.482483,78.591660 
	C535.482483,78.591660 535.414673,78.477638 535.482483,78.591660 
z"/>
<path fill="#F9F9F9" opacity="1.000000" stroke="none" 
	d="
M218.841431,130.619965 
	C217.453445,130.155533 216.038132,129.225723 214.682098,129.305344 
	C207.966904,129.699661 204.284393,127.303574 202.558990,120.362900 
	C206.167023,117.788208 209.038513,115.467003 206.984726,110.967278 
	C207.767838,110.076591 208.550964,109.185898 209.950226,108.018204 
	C212.382721,107.157585 214.199036,106.573967 215.827545,106.267303 
	C214.096817,107.656227 212.553925,108.768204 211.011032,109.880173 
	C211.345062,110.302261 211.679077,110.724350 212.013092,111.146439 
	C213.780884,109.736664 215.548660,108.326889 217.316452,106.917114 
	C216.874176,106.614754 216.431900,106.312401 216.115051,105.716324 
	C216.565063,103.804863 220.891403,103.638672 217.909424,100.821556 
	C221.652710,98.290443 225.260239,95.521317 229.173843,93.288773 
	C234.009949,90.529976 239.066833,89.425034 244.098267,93.201828 
	C247.251068,95.568459 249.955887,95.581528 252.475067,91.904739 
	C254.433823,89.045914 257.012177,86.593880 259.430145,84.071289 
	C263.900604,79.407433 272.288300,79.813507 275.612610,85.175171 
	C276.482849,86.578705 275.513062,89.123047 275.376617,91.333054 
	C275.568054,91.377983 276.257935,91.539886 277.385254,91.804466 
	C274.121277,96.913116 271.008881,101.784508 268.177307,106.216400 
	C272.291779,110.962128 277.340271,115.320938 280.496185,120.774887 
	C285.017426,128.588409 289.579712,136.886063 286.971008,146.644547 
	C286.387726,148.826370 285.645447,151.200348 284.250397,152.884537 
	C280.710999,157.157639 279.461945,161.878738 280.124908,167.260590 
	C280.226288,168.083679 280.212067,168.922272 280.230042,169.754166 
	C280.419830,178.536163 276.247589,182.624420 267.567749,180.984009 
	C261.956055,179.923447 256.416656,177.848343 251.214310,175.432343 
	C246.050735,173.034378 244.635101,165.610275 248.216003,161.597870 
	C249.034531,160.680725 251.211426,160.365616 252.572403,160.658798 
	C256.451508,161.494354 260.217438,162.841080 264.055817,163.883759 
	C268.120270,164.987793 269.103394,163.882767 268.657959,159.818100 
	C267.901886,152.918808 267.195770,145.991531 266.988800,139.060486 
	C266.752350,131.142746 263.462524,124.523575 259.811829,117.936623 
	C250.801682,130.349701 242.150146,142.460007 233.259735,154.392334 
	C230.811066,157.678818 227.719116,160.505798 224.762619,163.379272 
	C224.082581,164.040237 222.353088,164.610260 221.773788,164.223267 
	C218.381897,161.957489 213.367004,161.689865 212.037811,156.015930 
	C212.482300,152.600525 212.348053,149.505600 213.637039,147.209717 
	C217.753632,139.877335 222.411377,132.849442 226.804428,125.669884 
	C227.045441,125.275993 226.780685,124.572632 226.751358,124.013321 
	C226.093643,123.469414 225.435913,122.925514 224.778183,122.381607 
	C222.799271,125.127731 220.820358,127.873856 218.841431,130.619965 
z"/>
<path fill="#F5F5F5" opacity="1.000000" stroke="none" 
	d="
M491.985596,161.730499 
	C493.501709,161.932419 495.017822,162.134354 496.978851,162.395523 
	C496.681213,158.364548 496.442596,155.133179 496.146606,151.124420 
	C487.202087,153.237000 479.363770,151.885788 473.806732,144.194778 
	C472.198792,141.969406 470.883026,139.532898 469.433319,137.193161 
	C469.815308,136.903671 470.197327,136.614166 470.579346,136.324661 
	C474.744202,137.730148 478.824768,139.549377 483.098541,140.420425 
	C487.076141,141.231125 491.315338,141.495331 495.320587,141.013367 
	C496.631256,140.855667 497.569458,137.602554 498.847961,135.483261 
	C494.475647,134.683762 490.737854,134.918427 488.198090,133.287521 
	C485.448914,131.522064 483.376862,128.209793 482.022064,125.127136 
	C481.701477,124.397652 485.427490,121.889763 487.736359,120.559418 
	C491.744415,123.965767 493.691010,123.088104 495.329590,117.865265 
	C496.792877,117.269516 497.909424,116.660454 499.279938,115.937531 
	C499.888153,115.349518 500.242401,114.875374 500.596649,114.401222 
	C500.064331,114.341537 499.532013,114.281860 498.637207,114.301346 
	C497.194702,115.276535 496.114685,116.172569 494.735901,117.099503 
	C493.664093,117.749176 492.890961,118.367950 492.117828,118.986710 
	C492.030853,117.855103 491.943878,116.723495 491.823273,115.154427 
	C486.070984,116.359116 483.160370,112.295486 480.026489,108.218346 
	C479.990784,107.890678 480.021332,107.967743 480.021332,107.967743 
	C481.140961,107.417442 482.247711,106.419601 483.382233,106.386948 
	C493.352875,106.099937 503.332306,105.752045 513.300903,105.917824 
	C518.229431,105.999794 523.125122,107.316383 528.064758,107.712250 
	C531.930420,108.022057 535.840759,107.774353 539.731262,107.774353 
	C539.873230,108.204529 540.015259,108.634705 540.157227,109.064888 
	C538.274414,110.125221 536.391541,111.185562 533.376953,112.883224 
	C535.076416,114.771721 537.296021,116.290672 538.162109,118.372643 
	C541.136475,125.523178 546.318970,130.710342 552.018005,135.593796 
	C552.591248,136.085022 552.492859,137.360123 551.816101,139.653748 
	C547.743591,137.549026 543.254272,135.965210 539.744873,133.156860 
	C537.397034,131.277985 535.808350,131.069992 533.166748,131.699646 
	C530.640259,132.301880 527.898315,132.052841 525.250122,132.080643 
	C520.908264,132.126205 516.565552,132.092987 511.981476,132.092987 
	C512.773254,135.500397 513.390869,138.158295 513.972656,140.661987 
	C519.618408,140.661987 525.237183,140.836929 530.839722,140.611023 
	C536.069092,140.400177 540.646545,143.556839 542.140198,149.988037 
	C532.408752,150.447449 522.906799,150.896027 513.261780,151.351364 
	C510.919312,158.537888 512.113647,160.170776 519.791443,158.719101 
	C528.363159,157.098389 536.796692,156.167313 545.220825,159.405960 
	C546.006653,159.708084 547.318176,158.494156 548.204102,158.714340 
	C550.355835,159.249191 552.400635,160.214355 554.391785,160.969467 
	C534.906189,174.501831 512.991089,175.021561 490.759644,178.127899 
	C490.523712,178.629974 489.841187,180.082504 488.945007,181.989639 
	C480.497345,179.558929 475.144104,173.553864 470.616394,166.597351 
	C472.225830,164.323456 473.709473,162.227325 475.183533,160.144730 
	C480.722839,160.976913 486.474548,161.841003 492.135406,162.260101 
	C492.044525,161.815109 491.985596,161.730499 491.985596,161.730499 
M510.440979,122.793709 
	C508.223145,126.309700 511.685791,125.670151 512.989990,125.855522 
	C516.723999,126.386253 520.514526,126.648338 524.288513,126.721481 
	C526.638733,126.767036 528.999268,126.278419 531.472290,126.017166 
	C529.368347,121.591209 527.563965,117.795486 525.609070,113.683167 
	C523.459351,113.528831 521.013794,113.353264 518.457397,113.169739 
	C518.641052,115.276360 518.792236,117.011292 518.932739,118.622986 
	C516.091064,119.965912 513.556519,121.163696 510.440979,122.793709 
z"/>
<path fill="#F9F9F9" opacity="1.000000" stroke="none" 
	d="
M327.045380,108.948166 
	C330.622040,117.492058 334.171021,125.660767 337.390717,133.957260 
	C339.179993,138.568008 340.695892,143.329865 341.779663,148.148529 
	C342.251709,150.247391 342.097168,153.234451 340.904602,154.828888 
	C336.167542,161.162186 329.075806,164.185608 321.823059,166.602600 
	C320.660156,166.990128 318.915070,165.700668 317.460480,165.131882 
	C306.861450,160.987396 298.362671,154.384506 292.830322,143.864517 
	C299.811798,146.662003 304.370056,141.165283 309.879791,139.116501 
	C310.373993,138.932770 310.542999,135.682083 309.782776,134.656372 
	C302.159027,124.369881 294.291534,114.264404 286.538757,104.072899 
	C285.141052,102.235504 283.555206,100.389259 282.756897,98.281708 
	C281.388306,94.668655 285.929749,87.698410 290.210876,86.565773 
	C289.657104,85.478760 289.124176,84.432686 288.591278,83.386604 
	C288.994049,82.925049 289.396820,82.463493 289.799591,82.001938 
	C302.159760,90.876747 314.519928,99.751556 327.045380,108.948166 
z"/>
<path fill="#F6F6F6" opacity="1.000000" stroke="none" 
	d="
M409.390869,132.255249 
	C406.430573,133.572144 403.534363,135.591476 400.873199,135.318634 
	C389.911407,134.194809 383.282837,140.154922 378.091492,148.430206 
	C374.536652,154.096848 377.480988,158.610443 384.299316,159.038834 
	C392.435883,159.550079 400.555359,160.333160 409.446808,161.061066 
	C403.005554,168.234451 395.808990,172.639343 387.381500,174.942947 
	C385.993896,175.322235 384.175232,174.462952 382.644135,173.924805 
	C371.468964,169.996948 364.609192,161.199890 358.352753,151.880417 
	C357.533905,150.660645 357.819580,148.206757 358.408722,146.628754 
	C360.035156,142.272354 362.843781,138.222229 363.705231,133.764999 
	C364.238708,131.004837 362.786133,127.191422 360.984711,124.775787 
	C355.733917,117.734695 358.131165,109.747192 357.506958,102.164291 
	C357.469879,101.713814 360.851501,100.087631 361.899658,100.582230 
	C371.077454,104.912994 373.062469,104.686432 373.510162,115.537857 
	C373.597992,117.666847 373.747955,119.793274 373.796753,120.648918 
	C380.425934,120.167564 386.705383,119.821815 392.953979,119.177139 
	C394.438202,119.024017 395.959381,118.057846 397.210083,117.125626 
	C398.606720,116.084633 400.195435,113.369797 400.864929,113.619934 
	C403.728821,114.689995 407.867371,116.057945 408.611176,118.292511 
	C410.002380,122.472107 409.359589,127.328735 409.390869,132.255249 
z"/>
<path fill="#A21910" opacity="1.000000" stroke="none" 
	d="
M594.947571,178.527100 
	C591.280640,178.599030 587.613647,178.670959 583.387085,178.332352 
	C581.168457,176.446777 579.509399,174.971725 578.196045,173.570618 
	C579.682983,173.094543 580.824219,172.544540 582.231628,171.798386 
	C581.978088,170.065628 581.458435,168.529022 580.887939,166.804047 
	C580.837036,166.615646 580.837158,166.225372 580.892151,165.825043 
	C580.435608,163.925507 579.924072,162.426331 579.330811,160.546356 
	C579.283691,159.132965 579.318359,158.100357 579.657227,156.965118 
	C579.980286,155.240265 579.999146,153.618011 580.402161,151.997192 
	C581.554382,152.008743 582.322571,152.018890 583.117676,152.369507 
	C585.272705,155.503265 586.655945,159.599808 592.447327,157.584427 
	C586.919067,155.686859 588.468384,152.922867 590.297241,149.926468 
	C591.230408,148.397507 591.861755,146.639496 592.334167,144.904572 
	C592.457825,144.450546 591.477783,143.695953 591.002258,142.698761 
	C591.000366,141.556900 591.000854,140.795654 591.325012,140.026718 
	C592.079773,140.013840 592.510864,140.008667 593.167480,140.260284 
	C594.478577,140.826401 595.564148,141.135681 596.684692,141.724258 
	C596.750000,142.376678 596.780151,142.749786 596.566528,143.359344 
	C596.221130,144.743881 596.119629,145.891937 595.987183,147.415894 
	C595.812012,148.531845 595.667847,149.271881 595.270996,150.026825 
	C594.653931,150.362457 594.289551,150.683182 593.592773,151.042145 
	C592.951599,152.104019 592.398376,153.125122 592.387634,154.151901 
	C592.368286,156.003906 592.829102,157.862335 592.793152,159.712326 
	C592.765320,161.140274 592.284363,162.559402 591.631470,163.945312 
	C589.927673,163.928329 588.594421,163.920059 587.274841,164.050217 
	C587.206665,164.056931 587.078430,165.734528 587.278198,165.806946 
	C588.536011,166.263031 589.867493,166.598175 591.198792,166.730927 
	C591.766724,166.787567 592.392944,166.259979 593.250916,166.103210 
	C594.000427,166.470337 594.491638,166.732117 594.990479,167.261108 
	C595.008911,167.706238 595.019653,167.884125 594.844238,168.270844 
	C593.473816,168.668076 592.289551,168.856476 590.745728,169.026306 
	C589.620850,169.415390 588.855530,169.823013 588.075195,170.637054 
	C589.096436,171.740845 590.067627,172.878082 591.182739,173.043030 
	C593.422241,173.374298 595.740295,173.174942 598.262756,173.417511 
	C599.670471,173.399887 600.841309,173.159332 602.265442,172.787399 
	C603.021057,172.103577 603.523376,171.551147 604.294556,170.763504 
	C604.314270,169.021790 604.065063,167.515289 603.697937,165.835571 
	C603.406189,165.438705 603.196045,165.256958 602.971619,164.737671 
	C603.201599,163.126221 603.409729,161.894165 603.656738,160.431885 
	C602.034180,159.936279 600.518982,159.473480 599.109131,158.749664 
	C599.475403,157.991364 599.736389,157.494064 600.215576,156.731964 
	C602.321716,154.624100 604.209778,152.781036 606.328247,151.171112 
	C606.737793,152.258713 606.916992,153.113159 607.019836,154.299637 
	C606.907349,155.084183 606.871216,155.536697 606.695557,156.093353 
	C606.662109,156.469940 606.768188,156.742386 606.910400,157.361603 
	C607.038452,158.162903 607.130371,158.617416 607.170166,159.442520 
	C607.208008,160.553711 607.297974,161.294342 607.274170,162.008545 
	C607.160400,161.982132 606.927002,161.990555 606.674805,162.234863 
	C606.625305,163.990265 606.828064,165.501328 607.061035,167.348877 
	C607.400818,168.491470 607.710388,169.297607 608.214355,170.345703 
	C609.238953,170.315598 610.069092,170.043518 610.900879,169.395111 
	C610.936462,168.015854 610.970337,167.012955 611.281372,165.739609 
	C611.436768,162.988403 611.315063,160.507614 611.140808,157.757294 
	C611.031372,157.313782 610.974487,157.139786 610.950806,156.653748 
	C611.129272,154.912766 611.274414,153.483795 611.734314,151.931885 
	C612.018311,149.871307 611.987610,147.933624 611.921265,145.621582 
	C611.809937,144.500534 611.734314,143.753860 611.797363,142.766235 
	C611.993286,142.349014 612.050537,142.172775 612.516479,142.016754 
	C613.606628,142.775879 614.866394,143.508850 614.874084,144.254669 
	C614.917603,148.497757 614.560059,152.743423 614.539551,156.989166 
	C614.521851,160.653564 614.772095,164.319229 614.903870,167.984344 
	C614.881409,169.043457 614.858948,170.102554 614.412048,171.618912 
	C610.975952,173.770981 607.964355,175.465805 604.952759,177.160645 
	C604.298279,177.186798 603.643799,177.212952 602.218018,177.152206 
	C599.280334,177.552567 597.113953,178.039825 594.947571,178.527100 
z"/>
<path fill="#F5F5F5" opacity="1.000000" stroke="none" 
	d="
M390.644714,104.488922 
	C386.976654,107.541039 384.654297,104.667793 382.388245,102.961014 
	C380.680145,101.674500 379.025238,99.840729 378.279999,97.893364 
	C377.601959,96.121681 377.332855,93.077629 378.362518,91.972534 
	C381.774872,88.310226 385.854980,85.270081 388.805939,82.739799 
	C392.846985,84.078262 395.898254,84.565521 398.368134,86.031967 
	C401.901459,88.129822 401.262207,91.884239 400.668243,95.288673 
	C400.405029,96.797523 399.864960,98.281380 399.277954,99.705429 
	C398.168091,102.397919 397.487061,105.856956 393.125916,103.520706 
	C392.642029,103.261490 391.655609,103.940346 390.644714,104.488922 
z"/>
<path fill="#A7170D" opacity="1.000000" stroke="none" 
	d="
M591.001343,140.034409 
	C591.000854,140.795654 591.000366,141.556900 590.834595,142.735901 
	C590.669250,143.153656 590.326233,143.131638 589.966919,143.111053 
	C589.123779,144.088913 588.639954,145.087341 588.093872,146.408020 
	C587.018433,147.822266 586.005249,148.914261 584.768921,150.118347 
	C584.373047,150.508896 584.200439,150.787338 583.935669,151.281342 
	C583.654236,151.761520 583.403320,151.938904 583.090698,152.029053 
	C582.322571,152.018890 581.554382,152.008743 580.244812,151.655334 
	C576.435669,145.984650 583.732483,144.017151 583.593201,139.262329 
	C582.769775,139.455765 582.164734,139.518921 581.622314,139.737427 
	C575.590942,142.167175 577.118591,147.413254 577.026611,152.053085 
	C576.999084,152.041229 577.057007,152.026215 576.761353,152.264160 
	C576.263306,156.002548 576.060852,159.502960 575.871704,163.324646 
	C575.835327,164.070114 575.785767,164.494339 575.343628,164.919769 
	C571.325684,163.195038 573.423035,160.141891 573.294434,157.628418 
	C573.147766,154.761337 573.142212,151.887039 573.075317,149.015884 
	C573.083679,147.955154 573.092041,146.894440 573.549805,145.314377 
	C574.334595,142.609924 575.091675,140.389938 574.914490,138.247223 
	C574.581787,134.224228 575.835999,132.539764 580.070496,132.867722 
	C581.676697,132.992126 583.385864,131.786209 585.048096,131.186646 
	C585.486389,131.134781 585.924744,131.082916 586.996704,131.346100 
	C594.170105,132.058273 600.709839,132.455368 607.249634,132.852463 
	C607.249634,132.852463 607.623901,132.916595 607.845581,133.358887 
	C608.755737,135.546906 609.166931,137.081360 606.346436,137.022491 
	C603.188660,136.956573 600.010193,136.824219 596.877319,137.114700 
	C595.554688,137.237335 594.325439,138.366882 593.042480,139.037140 
	C593.031311,139.035507 593.034119,139.051056 592.751343,139.026855 
	C591.979492,139.346588 591.490417,139.690506 591.001343,140.034409 
z"/>
<path fill="#F2F2F2" opacity="1.000000" stroke="none" 
	d="
M403.488800,96.000198 
	C404.087860,94.067619 404.487366,92.456955 405.028809,90.895493 
	C406.200562,87.516052 407.887634,84.980438 412.210236,85.774666 
	C417.670410,86.777908 421.698975,89.828987 420.970215,94.024162 
	C420.126953,98.878632 417.902649,103.493195 416.221588,108.375664 
	C410.093811,105.444908 405.554260,102.120338 403.488800,96.000198 
z"/>
<path fill="#CFCDCE" opacity="1.000000" stroke="none" 
	d="
M475.011383,222.947021 
	C474.661591,220.828674 474.066101,218.716812 474.010010,216.590714 
	C473.866180,211.138046 473.962006,205.679031 473.962006,200.416580 
	C480.506775,200.416580 486.726868,200.651337 492.913849,200.301132 
	C495.391113,200.160904 496.055084,200.421188 495.931488,202.959976 
	C495.705627,207.600052 496.049774,212.272156 495.729095,216.901306 
	C495.588470,218.931168 494.398529,220.888336 493.685059,222.878510 
	C491.953094,222.094620 490.221191,221.310730 487.482483,220.071152 
	C492.540588,219.425415 493.969543,216.312866 492.354980,210.579559 
	C492.045410,209.480255 489.311218,209.063721 486.551208,207.814041 
	C486.551208,207.860046 486.665344,206.478821 486.516663,205.126480 
	C486.387756,203.954071 485.960999,202.814438 485.665894,201.660309 
	C485.222351,201.672134 484.778809,201.683960 484.335266,201.695786 
	C483.991364,204.409027 483.647461,207.122284 483.261261,210.169067 
	C481.198395,209.416000 479.544525,208.812241 477.096710,207.918655 
	C477.096710,212.892090 477.096710,216.996750 476.703918,221.567291 
	C475.877899,222.337784 475.444641,222.642410 475.011383,222.947021 
M478.980194,204.252319 
	C478.883759,203.977448 478.787323,203.702576 478.690887,203.427673 
	C478.542786,203.489532 478.281494,203.528442 478.263611,203.616730 
	C478.009338,204.870926 477.788116,206.131805 477.558868,207.391052 
	C478.394501,207.433914 479.230164,207.476776 480.065765,207.519653 
	C479.864502,206.683975 479.663208,205.848282 478.980194,204.252319 
M489.641907,204.146744 
	C490.538818,203.897736 491.435699,203.648712 492.332611,203.399719 
	C491.936981,202.791275 491.541321,202.182831 491.145691,201.574402 
	C490.427002,202.178406 489.708344,202.782410 489.641907,204.146744 
M490.638397,204.781342 
	C490.136047,205.532532 489.633698,206.283707 489.131348,207.034897 
	C489.764709,207.329895 490.398071,207.624893 491.031433,207.919891 
	C491.246582,206.930878 491.461700,205.941864 490.638397,204.781342 
z"/>
<path fill="#464646" opacity="1.000000" stroke="none" 
	d="
M442.735046,128.147339 
	C439.014069,136.469589 435.293121,144.791840 431.240295,153.689163 
	C429.687042,156.515671 428.465637,158.767105 427.244232,161.018555 
	C425.793549,164.085739 424.342834,167.152908 422.600647,170.879196 
	C420.845886,171.934677 419.382599,172.331055 417.919342,172.727417 
	C420.108154,167.326752 422.008728,161.784851 424.566681,156.565094 
	C427.127716,151.338989 430.202393,146.343781 433.329529,141.423798 
	C435.166931,138.533066 438.072601,136.261642 438.594116,132.008026 
	C439.647522,131.052551 440.081085,130.482513 440.489807,129.782471 
	C440.464996,129.652435 440.650269,129.462311 440.650269,129.462311 
	C440.650269,129.462311 440.912109,129.504120 441.352142,129.507721 
	C441.854248,128.979080 441.916321,128.446869 441.989197,127.954010 
	C442.000000,127.993370 441.949463,127.929298 442.100952,128.145599 
	C442.413300,128.290390 442.574188,128.218857 442.735046,128.147339 
z"/>
<path fill="#CFCDCE" opacity="1.000000" stroke="none" 
	d="
M284.299469,220.132721 
	C290.470917,219.259171 291.373077,217.014954 288.018005,210.951996 
	C291.595673,211.543915 292.953857,213.764023 293.050537,216.660431 
	C293.169952,220.238434 290.815277,222.028824 287.551758,222.627853 
	C284.239990,223.235748 281.679199,222.163605 280.394043,218.836349 
	C279.605591,216.795135 278.846588,214.742569 278.144012,212.879745 
	C278.413544,210.870087 278.700714,208.728928 279.027283,206.294083 
	C283.303101,206.715454 282.183075,203.132919 281.956421,200.140945 
	C284.900482,201.344666 287.180054,206.895569 284.819702,208.696823 
	C280.641510,211.885345 283.942291,213.215683 285.964050,215.534103 
	C284.284424,215.968521 283.140808,216.264313 281.263885,216.749786 
	C282.277588,218.013824 283.093170,219.030792 284.299469,220.132721 
z"/>
<path fill="#464646" opacity="1.000000" stroke="none" 
	d="
M218.852249,130.952515 
	C220.820358,127.873856 222.799271,125.127731 224.778183,122.381607 
	C225.435913,122.925514 226.093643,123.469414 226.751358,124.013321 
	C226.780685,124.572632 227.045441,125.275993 226.804428,125.669884 
	C222.411377,132.849442 217.753632,139.877335 213.637039,147.209717 
	C212.348053,149.505600 212.482300,152.600525 211.918030,155.690460 
	C208.594452,153.403229 208.401810,149.785431 210.730988,145.975159 
	C213.647430,141.204239 216.170303,136.192734 218.852249,130.952515 
z"/>
<path fill="#811914" opacity="1.000000" stroke="none" 
	d="
M593.053711,139.038757 
	C594.325439,138.366882 595.554688,137.237335 596.877319,137.114700 
	C600.010193,136.824219 603.188660,136.956573 606.346436,137.022491 
	C609.166931,137.081360 608.755737,135.546906 608.020630,133.432404 
	C613.898071,135.086349 616.726990,139.719543 616.716919,145.487183 
	C616.704285,152.715149 615.666443,159.941330 614.987488,167.576309 
	C614.772095,164.319229 614.521851,160.653564 614.539551,156.989166 
	C614.560059,152.743423 614.917603,148.497757 614.874084,144.254669 
	C614.866394,143.508850 613.606628,142.775879 612.268555,141.978165 
	C611.448486,141.885880 611.285034,141.852432 611.117065,141.610168 
	C611.112549,141.401367 611.024841,140.992966 610.988037,140.667511 
	C610.285400,139.921295 609.619629,139.500519 608.561157,139.040512 
	C607.116394,138.995865 606.064331,138.990463 604.766968,138.739685 
	C603.013672,138.670227 601.505554,138.846130 599.629028,139.012177 
	C598.524658,139.033310 597.788635,139.064331 596.653320,139.048126 
	C595.187195,139.013519 594.120483,139.026154 593.053711,139.038757 
z"/>
<path fill="#D6D5D6" opacity="1.000000" stroke="none" 
	d="
M419.003967,212.987595 
	C415.417389,211.612076 413.894745,214.587219 411.873352,216.426987 
	C410.914032,217.300079 410.134583,218.370789 409.273621,219.351959 
	C408.985931,219.057053 408.698242,218.762131 408.410522,218.467209 
	C409.218201,217.842178 410.025848,217.217148 410.886261,216.551285 
	C407.022827,209.992630 418.638763,210.608734 415.301788,203.924988 
	C414.639923,203.740753 412.878693,203.250519 411.362732,202.828552 
	C413.110474,202.508224 414.827850,202.023254 416.565155,201.936066 
	C417.686859,201.879776 419.072052,202.125061 419.874512,202.793259 
	C420.262207,203.116089 419.467102,204.718323 419.405426,205.753067 
	C419.298492,207.547638 414.812042,208.695068 418.853790,211.601135 
	C419.063873,212.432114 419.033936,212.709854 419.003967,212.987595 
z"/>
<path fill="#646363" opacity="1.000000" stroke="none" 
	d="
M442.195496,213.892349 
	C441.917572,210.119324 441.639648,206.346313 441.318115,201.981430 
	C443.241211,201.981430 445.966278,201.981430 449.203491,202.365265 
	C449.552216,206.438461 449.388794,210.127823 448.852264,213.905243 
	C446.384613,213.959656 444.290039,213.926010 442.195496,213.892349 
z"/>
<path fill="#C0BEBF" opacity="1.000000" stroke="none" 
	d="
M350.823303,212.701660 
	C350.134613,212.704910 349.445953,212.708160 348.405792,212.234344 
	C348.059784,210.519119 348.065216,209.280945 348.070679,208.042770 
	C347.724670,206.463959 347.026489,204.858734 347.142334,203.314560 
	C347.237732,202.043243 348.298248,200.844330 348.931000,199.613327 
	C349.816254,200.199646 350.647675,201.149063 351.598907,201.290024 
	C353.154663,201.520554 354.795746,201.294937 356.386749,201.127808 
	C357.566101,201.003937 358.723083,200.667542 360.404785,201.540405 
	C358.887604,202.683212 357.370422,203.826019 355.338287,205.356705 
	C357.007904,205.984543 357.772583,206.272095 358.388275,206.503616 
	C356.599274,206.933548 354.747589,207.378525 352.216431,208.122864 
	C351.299072,209.848694 351.061188,211.275192 350.823303,212.701660 
z"/>
<path fill="#D6D5D6" opacity="1.000000" stroke="none" 
	d="
M449.225372,213.817169 
	C449.388794,210.127823 449.552216,206.438461 449.618835,202.298218 
	C450.193176,201.184784 450.864288,200.522247 451.535431,199.859695 
	C452.249573,201.022385 452.963745,202.185089 453.570251,203.728760 
	C452.116333,206.913574 451.400421,209.404968 456.002686,209.668533 
	C456.323212,212.385971 456.654083,214.690002 456.984955,216.994019 
	C456.247772,219.020233 455.510620,221.046463 454.246613,222.806366 
	C453.391998,222.391159 453.064209,222.242279 452.736450,222.093399 
	C452.364532,221.764130 451.992645,221.434860 451.673431,220.775482 
	C452.528290,219.376083 453.916595,218.361954 454.023438,217.227188 
	C454.353149,213.724319 451.331818,214.281921 449.225372,213.817169 
z"/>
<path fill="#811914" opacity="1.000000" stroke="none" 
	d="
M572.798706,149.299316 
	C573.142212,151.887039 573.147766,154.761337 573.294434,157.628418 
	C573.423035,160.141891 571.325684,163.195038 575.430725,165.333069 
	C576.557068,168.329010 577.203735,170.912842 577.850403,173.496674 
	C579.509399,174.971725 581.168457,176.446777 582.942749,178.223877 
	C575.666199,178.199158 571.281494,173.106674 571.171448,163.841522 
	C571.115173,159.094604 572.040344,154.336044 572.798706,149.299316 
z"/>
<path fill="#F5F5F5" opacity="1.000000" stroke="none" 
	d="
M458.703918,91.243752 
	C461.490997,91.298843 462.583344,92.642281 461.450287,95.048447 
	C459.549194,99.085747 457.464294,103.036491 454.989990,107.508636 
	C453.298859,109.312752 452.074493,110.631874 450.743561,111.694885 
	C450.979034,110.617050 451.321045,109.795334 451.663055,108.973618 
	C451.835083,108.540245 452.007080,108.106865 451.860809,107.052383 
	C451.542511,106.431274 451.576385,106.366318 451.576385,106.366318 
	C452.662140,105.001846 454.117981,103.790459 454.758575,102.241844 
	C456.203156,98.749504 457.244385,95.090317 458.703918,91.243752 
z"/>
<path fill="#F5F5F5" opacity="1.000000" stroke="none" 
	d="
M467.868439,56.315598 
	C467.705444,59.947102 467.651459,63.932510 466.904266,67.783417 
	C465.753265,73.715492 464.193451,79.573067 462.634888,85.416336 
	C462.384766,86.354073 461.239716,87.053116 460.129517,87.882042 
	C462.389374,77.470795 465.028137,67.040016 467.868439,56.315598 
z"/>
<path fill="#383637" opacity="1.000000" stroke="none" 
	d="
M448.852264,213.905243 
	C451.331818,214.281921 454.353149,213.724319 454.023438,217.227188 
	C453.916595,218.361954 452.528290,219.376083 451.432800,220.686874 
	C450.016785,221.552017 448.894104,222.175659 448.628540,222.323181 
	C445.557251,219.891602 442.926819,217.809021 440.071960,215.548782 
	C440.171265,215.484222 440.970520,214.964508 441.982666,214.168579 
	C444.290039,213.926010 446.384613,213.959656 448.852264,213.905243 
z"/>
<path fill="#222222" opacity="1.000000" stroke="none" 
	d="
M451.593750,108.513290 
	C451.321045,109.795334 450.979034,110.617050 450.787292,111.706039 
	C450.937592,111.973312 450.980988,111.893005 450.658264,111.848518 
	C450.170380,112.197510 450.005249,112.590988 449.891327,112.950607 
	C449.942566,112.916748 449.883667,112.808952 449.607727,113.025948 
	C446.871033,118.138397 444.410248,123.033844 441.949463,127.929298 
	C441.949463,127.929298 442.000000,127.993370 441.540955,127.946198 
	C441.025299,128.434052 440.968719,128.969086 440.912109,129.504120 
	C440.912109,129.504120 440.650269,129.462311 440.650269,129.462311 
	C440.650269,129.462311 440.464996,129.652435 440.110138,129.724091 
	C439.519745,129.896591 439.284241,129.997452 439.048767,130.098297 
	C440.057434,126.711075 440.713715,123.163338 442.164948,119.977745 
	C443.930878,116.101402 446.275818,112.471642 448.595795,108.880928 
	C449.009094,108.241234 450.520264,108.310867 451.593750,108.513290 
z"/>
<path fill="#DFDDDE" opacity="1.000000" stroke="none" 
	d="
M419.345245,213.189301 
	C419.033936,212.709854 419.063873,212.432114 419.154663,211.739761 
	C420.339111,211.519028 421.462646,211.712921 422.974213,211.973755 
	C423.171295,210.260208 423.350433,208.702789 423.598389,206.546783 
	C424.679871,207.183350 425.677246,207.770432 426.674652,208.357513 
	C424.292419,212.200348 428.021210,214.349060 429.091919,217.242493 
	C429.222229,217.594696 428.832581,218.139282 428.575134,218.927917 
	C427.119812,217.971695 425.798889,217.103775 424.680511,216.368942 
	C422.756714,218.137054 420.914520,219.830154 418.759583,221.810684 
	C417.841522,218.234634 424.910553,216.758087 419.345245,213.189301 
z"/>
<path fill="#C7C5C6" opacity="1.000000" stroke="none" 
	d="
M378.646790,217.094147 
	C381.569000,217.953979 384.444031,219.184845 387.427338,219.564270 
	C390.151123,219.910690 392.992218,219.334946 396.341309,220.096863 
	C395.248993,220.955475 394.080505,222.628922 393.077179,222.535126 
	C388.068207,222.066879 382.184845,224.642487 378.225525,218.382965 
	C378.173584,217.631378 378.410187,217.362762 378.646790,217.094147 
z"/>
<path fill="#F5F5F5" opacity="1.000000" stroke="none" 
	d="
M517.629395,34.478886 
	C513.318542,39.920013 506.577362,37.308987 500.903503,38.904419 
	C497.900208,39.748920 494.518005,39.246067 491.138611,39.041771 
	C499.723938,37.265114 508.477509,35.798168 517.629395,34.478886 
z"/>
<path fill="#DFDDDE" opacity="1.000000" stroke="none" 
	d="
M511.122009,215.016449 
	C510.261963,216.794281 509.401917,218.572128 508.541870,220.349991 
	C508.325195,220.232056 508.108521,220.114120 507.891846,219.996185 
	C508.147614,214.453064 508.363251,208.907318 508.727173,203.371307 
	C508.760254,202.868622 509.747040,202.428619 510.633606,202.361008 
	C511.309113,203.168716 511.641937,203.574921 511.879272,204.409973 
	C511.563171,208.231354 511.342590,211.623901 511.122009,215.016449 
z"/>
<path fill="#171717" opacity="1.000000" stroke="none" 
	d="
M511.360413,215.024963 
	C511.342590,211.623901 511.563171,208.231354 512.298035,204.353973 
	C514.588074,204.289047 516.363831,204.708969 518.125671,205.571075 
	C518.022095,208.680634 517.932373,211.348053 517.527832,214.015213 
	C516.793274,214.013687 516.373535,214.012421 515.621948,213.852905 
	C514.376526,214.136871 513.462891,214.579086 512.549255,215.021301 
	C512.549255,215.021317 512.074585,215.071304 512.074585,215.071304 
	C512.074585,215.071304 511.598816,215.033478 511.360413,215.024963 
z"/>
<path fill="#060606" opacity="1.000000" stroke="none" 
	d="
M515.953735,214.011154 
	C516.373535,214.012421 516.793274,214.013687 517.719238,214.341553 
	C519.247070,214.110123 520.268616,213.552124 521.290161,212.994125 
	C521.988037,212.997528 522.685852,213.000931 523.668213,213.455750 
	C523.875305,216.273636 523.797913,218.640121 523.720581,221.006592 
	C521.443604,221.342270 519.166626,221.677917 516.468628,221.564774 
	C516.016357,218.747696 515.985046,216.379425 515.953735,214.011154 
z"/>
<path fill="#E6E5E5" opacity="1.000000" stroke="none" 
	d="
M324.785767,208.966888 
	C324.261444,207.964600 323.824890,207.275024 323.231171,206.337189 
	C327.194519,206.604858 328.604340,208.667175 328.177582,212.231857 
	C327.687195,216.328537 324.130463,218.924011 320.571655,218.819885 
	C321.881409,215.915222 323.377472,212.597397 324.785767,208.966888 
z"/>
<path fill="#706F70" opacity="1.000000" stroke="none" 
	d="
M518.139587,205.128906 
	C516.363831,204.708969 514.588074,204.289047 512.393555,203.925125 
	C511.641937,203.574921 511.309113,203.168716 510.907654,202.504913 
	C513.410950,202.185486 516.561768,203.617706 517.588623,199.540802 
	C517.664490,199.239838 519.227783,198.985413 519.251892,199.046219 
	C521.281921,204.153961 526.592041,200.682770 530.999207,203.348770 
	C527.102905,203.841827 524.502991,204.170837 521.207153,204.684265 
	C519.720703,204.955399 518.930176,205.042160 518.139587,205.128906 
z"/>
<path fill="#CFCDCE" opacity="1.000000" stroke="none" 
	d="
M388.856995,210.263565 
	C388.018280,210.886276 387.072144,211.407303 386.365051,212.154541 
	C385.185760,213.400787 384.159576,214.791870 382.123749,215.556625 
	C383.740936,211.106476 385.358154,206.656311 387.334717,201.217285 
	C388.377258,204.344650 389.040863,206.335342 389.559753,208.841431 
	C389.229004,209.659058 389.042999,209.961304 388.856995,210.263565 
z"/>
<path fill="#811914" opacity="1.000000" stroke="none" 
	d="
M584.589966,131.105957 
	C583.385864,131.786209 581.676697,132.992126 580.070496,132.867722 
	C575.835999,132.539764 574.581787,134.224228 574.914490,138.247223 
	C575.091675,140.389938 574.334595,142.609924 573.638672,144.926483 
	C572.962036,141.465286 572.361877,137.861801 572.498352,134.286453 
	C572.540771,133.176636 574.457153,131.446503 575.733215,131.218536 
	C578.457336,130.731903 581.323792,131.041748 584.589966,131.105957 
z"/>
<path fill="#F5F5F5" opacity="1.000000" stroke="none" 
	d="
M479.600403,107.751549 
	C480.021332,107.967743 479.990784,107.890678 480.022369,107.869072 
	C479.210205,108.826302 478.240570,109.724724 477.552032,110.802696 
	C476.500397,112.449173 475.642914,114.219658 474.420166,116.144608 
	C474.464569,111.531715 474.791748,106.711723 475.138245,101.607262 
	C476.052917,101.962242 477.440918,102.500931 479.215820,103.109184 
	C479.461639,104.630951 479.320557,106.083153 479.600403,107.751549 
z"/>
<path fill="#E6E5E5" opacity="1.000000" stroke="none" 
	d="
M378.711121,216.654510 
	C378.410187,217.362762 378.173584,217.631378 377.990936,218.084335 
	C376.865662,219.630692 375.686462,220.992676 373.893982,223.063019 
	C373.693573,221.355850 373.179077,219.303116 373.479218,219.176163 
	C377.235840,217.587097 375.490112,214.443130 375.828705,211.879868 
	C375.954712,210.925995 376.607086,210.041641 377.019409,209.125580 
	C377.652496,210.001022 378.644684,210.805862 378.833954,211.768539 
	C379.113800,213.191803 378.823212,214.727234 378.711121,216.654510 
z"/>
<path fill="#DFDDDE" opacity="1.000000" stroke="none" 
	d="
M523.879150,221.344025 
	C523.797913,218.640121 523.875305,216.273636 524.016846,213.467926 
	C525.365601,213.378998 527.760742,213.733780 527.759399,214.078964 
	C527.748047,216.911652 527.290771,219.742538 526.968872,222.573975 
	C525.991821,222.276474 525.014771,221.978958 523.879150,221.344025 
z"/>
<path fill="#383637" opacity="1.000000" stroke="none" 
	d="
M347.698700,208.062546 
	C348.065216,209.280945 348.059784,210.519119 348.077057,212.125580 
	C347.719208,215.015091 349.579803,219.209335 343.571289,217.751846 
	C345.657532,214.850891 340.393951,210.664948 346.140503,208.491074 
	C346.609711,209.176422 346.609711,209.600388 346.609711,210.024353 
	C346.539429,210.018539 346.469116,210.012726 346.398834,210.006912 
	C346.472443,209.443634 346.546051,208.880371 346.619690,208.317108 
	C346.855377,208.238861 347.091034,208.160599 347.698700,208.062546 
z"/>
<path fill="#811914" opacity="1.000000" stroke="none" 
	d="
M607.095581,132.508514 
	C600.709839,132.455368 594.170105,132.058273 587.326782,131.383713 
	C593.761108,129.607040 600.446350,129.098236 607.095581,132.508514 
z"/>
<path fill="#DFDDDE" opacity="1.000000" stroke="none" 
	d="
M388.875977,210.618591 
	C389.042999,209.961304 389.229004,209.659058 389.635193,209.206406 
	C391.836212,211.211884 393.817017,213.367752 395.970612,215.711670 
	C395.451294,216.338181 394.760681,217.171326 393.407074,218.804306 
	C391.719696,215.875885 390.307343,213.424759 388.875977,210.618591 
z"/>
<path fill="#E6E5E5" opacity="1.000000" stroke="none" 
	d="
M518.125671,205.571075 
	C518.930176,205.042160 519.720703,204.955399 520.908936,204.940033 
	C521.220398,205.767242 521.134277,206.523071 521.176636,207.970581 
	C521.323792,209.112396 521.342468,209.562515 521.361145,210.012619 
	C521.259216,210.762009 521.157227,211.511383 521.172729,212.627441 
	C520.268616,213.552124 519.247070,214.110123 518.034058,214.341797 
	C517.932373,211.348053 518.022095,208.680634 518.125671,205.571075 
z"/>
<path fill="#DFDDDE" opacity="1.000000" stroke="none" 
	d="
M216.015366,105.990349 
	C214.199036,106.573967 212.382721,107.157585 210.221954,107.867630 
	C212.308197,105.609047 214.738861,103.224037 217.539490,100.830292 
	C220.891403,103.638672 216.565063,103.804863 216.120743,105.710953 
	C216.000992,105.999298 216.015366,105.990349 216.015366,105.990349 
z"/>
<path fill="#D6D5D6" opacity="1.000000" stroke="none" 
	d="
M515.621948,213.852905 
	C515.985046,216.379425 516.016357,218.747696 516.077393,221.561005 
	C514.382996,223.190918 512.767822,224.010223 512.676636,220.763519 
	C512.631104,219.141968 512.688538,217.517532 512.624329,215.457855 
	C513.462891,214.579086 514.376526,214.136871 515.621948,213.852905 
z"/>
<path fill="#F5F5F5" opacity="1.000000" stroke="none" 
	d="
M462.310913,128.866180 
	C461.835144,123.182205 466.914001,122.992828 470.723328,121.047707 
	C468.275299,123.623657 465.460480,126.212814 462.310913,128.866180 
z"/>
<path fill="#706F70" opacity="1.000000" stroke="none" 
	d="
M491.775574,119.072479 
	C492.890961,118.367950 493.664093,117.749176 494.771790,117.298553 
	C495.106384,117.466705 494.982849,117.851952 494.982849,117.851952 
	C493.691010,123.088104 491.744415,123.965767 488.089539,120.595818 
	C489.143372,119.901253 490.288330,119.529747 491.775574,119.072479 
z"/>
<path fill="#F5F5F5" opacity="1.000000" stroke="none" 
	d="
M417.655121,172.876007 
	C419.382599,172.331055 420.845886,171.934677 422.557617,171.246445 
	C424.968353,171.352234 425.773743,172.224564 423.669250,173.828705 
	C422.713837,174.556931 421.571228,175.039505 420.215576,175.833832 
	C418.646576,175.390976 415.414948,176.393845 417.655121,172.876007 
z"/>
<path fill="#DFDDDE" opacity="1.000000" stroke="none" 
	d="
M206.843430,111.258026 
	C209.038513,115.467003 206.167023,117.788208 202.667343,120.010956 
	C203.791153,117.212029 205.246643,114.380394 206.843430,111.258026 
z"/>
<path fill="#DFDDDE" opacity="1.000000" stroke="none" 
	d="
M457.212585,216.669861 
	C456.654083,214.690002 456.323212,212.385971 456.246887,209.577881 
	C456.673553,209.050507 456.845673,209.027222 457.294922,209.235718 
	C457.723419,210.912277 457.874756,212.357025 458.026093,213.801788 
	C458.549377,214.768280 459.072632,215.734787 459.219177,216.005447 
	C459.503662,215.951035 458.471924,216.148376 457.212585,216.669861 
z"/>
<path fill="#060606" opacity="1.000000" stroke="none" 
	d="
M521.782532,210.019241 
	C521.342468,209.562515 521.323792,209.112396 521.325439,208.324768 
	C524.013855,207.809296 526.682068,207.631348 529.350220,207.453415 
	C529.422791,208.187866 529.495361,208.922318 529.567932,209.656769 
	C527.113220,209.779800 524.658569,209.902832 521.782532,210.019241 
z"/>
<path fill="#F9F9F9" opacity="1.000000" stroke="none" 
	d="
M458.445557,213.853333 
	C457.874756,212.357025 457.723419,210.912277 457.372772,208.850739 
	C457.171906,207.190125 457.170319,206.146255 457.168732,205.102402 
	C459.075317,204.936371 460.899017,204.715454 460.034393,207.734558 
	C459.460510,209.738602 459.242401,211.844543 458.445557,213.853333 
z"/>
<path fill="#F5F5F5" opacity="1.000000" stroke="none" 
	d="
M530.541931,37.347984 
	C527.279114,36.854164 523.767151,36.082489 520.112427,35.005264 
	C523.410767,35.489853 526.851746,36.279987 530.541931,37.347984 
z"/>
<path fill="#811914" opacity="1.000000" stroke="none" 
	d="
M605.201782,177.365768 
	C607.964355,175.465805 610.975952,173.770981 614.301758,172.001694 
	C613.402710,176.799561 609.006348,176.502533 605.201782,177.365768 
z"/>
<path fill="#F5F5F5" opacity="1.000000" stroke="none" 
	d="
M526.361877,98.848106 
	C527.078552,93.732887 530.210938,96.316246 532.995117,97.294914 
	C531.032349,98.100006 528.884460,98.524536 526.361877,98.848106 
z"/>
<path fill="#383637" opacity="1.000000" stroke="none" 
	d="
M456.853821,205.015396 
	C457.170319,206.146255 457.171906,207.190125 457.095642,208.618958 
	C456.845673,209.027222 456.673553,209.050507 456.257263,209.164459 
	C451.400421,209.404968 452.116333,206.913574 453.794250,204.068787 
	C454.930267,204.328018 455.734589,204.628204 456.853821,205.015396 
z"/>
<path fill="#706F70" opacity="1.000000" stroke="none" 
	d="
M351.204224,212.897385 
	C351.061188,211.275192 351.299072,209.848694 351.883789,208.299896 
	C353.002960,208.455170 353.775299,208.732773 354.905029,209.428360 
	C355.506439,210.562332 355.750519,211.278320 355.994598,211.994308 
	C354.524780,212.360565 353.054962,212.726822 351.204224,212.897385 
z"/>
<path fill="#F5F5F5" opacity="1.000000" stroke="none" 
	d="
M481.122192,97.670090 
	C480.004608,97.223930 479.074860,96.464516 478.145081,95.705109 
	C479.196167,94.824287 480.247284,93.943466 481.657288,93.034271 
	C481.780823,94.456215 481.545441,95.906525 481.122192,97.670090 
z"/>
<path fill="#383637" opacity="1.000000" stroke="none" 
	d="
M343.856567,220.904572 
	C342.921600,222.101059 341.987885,222.938812 339.999817,224.722504 
	C339.999817,222.434830 339.999817,221.273972 339.999817,220.113098 
	C341.285828,220.257355 342.571808,220.401596 343.856567,220.904572 
z"/>
<path fill="#811914" opacity="1.000000" stroke="none" 
	d="
M595.335327,178.664093 
	C597.113953,178.039825 599.280334,177.552567 601.890625,177.138000 
	C600.130676,177.740829 597.926941,178.270966 595.335327,178.664093 
z"/>
<path fill="#C0BEBF" opacity="1.000000" stroke="none" 
	d="
M356.270203,211.837585 
	C355.750519,211.278320 355.506439,210.562332 355.207855,209.555908 
	C356.273926,209.498657 357.394531,209.731842 357.635620,209.782013 
	C357.621216,209.807098 357.083527,210.743973 356.270203,211.837585 
z"/>
<path fill="#F5F5F5" opacity="1.000000" stroke="none" 
	d="
M482.253601,35.577515 
	C480.752655,36.418636 479.106293,37.008759 477.251282,37.358604 
	C478.731110,36.521053 480.419678,35.923782 482.253601,35.577515 
z"/>
<path fill="#F5F5F5" opacity="1.000000" stroke="none" 
	d="
M474.866150,36.672295 
	C473.457733,37.653183 471.924011,38.281868 470.018188,38.885986 
	C471.344360,38.014313 473.042572,37.167206 474.866150,36.672295 
z"/>
<path fill="#F5F5F5" opacity="1.000000" stroke="none" 
	d="
M540.087769,41.605637 
	C538.552063,41.246094 536.839172,40.599220 535.056274,39.608749 
	C536.627747,39.949539 538.269226,40.633926 540.087769,41.605637 
z"/>
<path fill="#F5F5F5" opacity="1.000000" stroke="none" 
	d="
M503.315338,98.127724 
	C504.297546,97.981895 505.582001,98.005737 506.941559,98.346031 
	C505.883636,98.540787 504.750610,98.419090 503.315338,98.127724 
z"/>
<path fill="#F5F5F5" opacity="1.000000" stroke="none" 
	d="
M468.805664,46.057083 
	C468.754822,46.706123 468.395966,47.371799 467.740967,48.031921 
	C467.795807,47.375484 468.146729,46.724606 468.805664,46.057083 
z"/>
<path fill="#F5F5F5" opacity="1.000000" stroke="none" 
	d="
M423.283295,179.218338 
	C424.100922,179.209503 424.970398,179.487732 425.934937,180.033936 
	C425.131714,180.036423 424.233429,179.770905 423.283295,179.218338 
z"/>
<path fill="#F5F5F5" opacity="1.000000" stroke="none" 
	d="
M488.290955,37.560822 
	C487.397491,37.612423 486.304138,37.397263 485.092834,36.852524 
	C486.013641,36.779984 487.052307,37.037018 488.290955,37.560822 
z"/>
<path fill="#F5F5F5" opacity="1.000000" stroke="none" 
	d="
M479.834290,102.610367 
	C479.712708,101.983864 479.779999,101.110703 480.187988,100.107193 
	C480.360168,100.772461 480.191681,101.568085 479.834290,102.610367 
z"/>
<path fill="#F5F5F5" opacity="1.000000" stroke="none" 
	d="
M430.316895,182.605392 
	C430.394226,182.161835 430.810333,181.791809 431.226440,181.421753 
	C431.466431,181.809021 431.706390,182.196289 431.939758,182.877838 
	C431.507324,183.007706 431.081512,182.843307 430.316895,182.605392 
z"/>
<path fill="#C0BEBF" opacity="1.000000" stroke="none" 
	d="
M346.570435,208.337601 
	C346.546051,208.880371 346.472443,209.443634 346.398834,210.006912 
	C346.469116,210.012726 346.539429,210.018539 346.609711,210.024353 
	C346.609711,209.600388 346.609711,209.176422 346.512756,208.546722 
	C346.415771,208.341003 346.521149,208.358093 346.570435,208.337601 
z"/>
<path fill="#222222" opacity="1.000000" stroke="none" 
	d="
M451.662628,106.081924 
	C451.576385,106.366318 451.542511,106.431274 451.492676,106.457703 
	C451.460724,106.086693 451.478638,105.689247 451.496521,105.291801 
	C451.580627,105.460381 451.664764,105.628960 451.662628,106.081924 
z"/>
<path fill="#DFDDDE" opacity="1.000000" stroke="none" 
	d="
M475.322815,223.041443 
	C475.444641,222.642410 475.877899,222.337784 476.593231,222.022369 
	C476.461639,222.386322 476.047943,222.761093 475.322815,223.041443 
z"/>
<path fill="#F5F5F5" opacity="1.000000" stroke="none" 
	d="
M439.041840,130.440308 
	C439.284241,129.997452 439.519745,129.896591 440.134949,129.854126 
	C440.081085,130.482513 439.647522,131.052551 438.884277,131.840515 
	C438.714691,131.633072 438.874786,131.207687 439.041840,130.440308 
z"/>
<path fill="#F5F5F5" opacity="1.000000" stroke="none" 
	d="
M492.096008,161.817566 
	C492.147522,161.820023 491.884094,161.859329 491.884094,161.859329 
	C491.884094,161.859329 492.101593,161.946121 492.043579,161.838318 
	C491.985596,161.730499 492.044525,161.815109 492.096008,161.817566 
z"/>
<path fill="#F5F5F5" opacity="1.000000" stroke="none" 
	d="
M436.307068,184.075317 
	C436.042603,183.733582 436.174438,183.472717 436.582458,183.136444 
	C436.717651,183.380966 436.665894,183.746033 436.307068,184.075317 
z"/>
<path fill="#DFDDDE" opacity="1.000000" stroke="none" 
	d="
M452.828125,222.393768 
	C453.064209,222.242279 453.391998,222.391159 453.860931,222.775574 
	C453.641327,222.905426 453.280548,222.799774 452.828125,222.393768 
z"/>
<path fill="#060606" opacity="1.000000" stroke="none" 
	d="
M482.983948,60.955959 
	C501.527374,61.352753 520.179443,60.554440 538.699890,65.817429 
	C535.881042,71.351562 533.436401,76.720154 530.412476,81.739731 
	C529.509705,83.238228 526.938782,84.671654 525.211121,84.583618 
	C512.154053,83.918243 499.118683,82.836540 486.071472,81.959610 
	C483.368958,81.777969 482.299988,80.699036 482.543823,77.883842 
	C482.858582,74.249405 482.772705,70.580261 482.866150,66.064873 
	C482.909912,63.787773 482.946930,62.371868 482.983948,60.955959 
z"/>
<path fill="#F5F5F5" opacity="1.000000" stroke="none" 
	d="
M442.100952,128.145599 
	C444.410248,123.033844 446.871033,118.138397 449.631317,113.395905 
	C450.017059,114.530220 450.103302,115.511559 450.233887,116.996895 
	C451.842682,115.726677 452.925323,114.871887 454.007935,114.017082 
	C453.116211,115.909767 452.549744,118.069504 451.262482,119.637451 
	C448.862427,122.560768 446.043213,125.139969 443.066742,128.004852 
	C442.574188,128.218857 442.413300,128.290390 442.100952,128.145599 
z"/>
<path fill="#C0BEBF" opacity="1.000000" stroke="none" 
	d="
M454.057800,113.661171 
	C452.925323,114.871887 451.842682,115.726677 450.233887,116.996895 
	C450.103302,115.511559 450.017059,114.530220 449.907227,113.178909 
	C449.883667,112.808952 449.942566,112.916748 450.151733,112.853424 
	C450.567627,112.491066 450.774292,112.192032 450.980988,111.893005 
	C450.980988,111.893005 450.937592,111.973312 450.893860,111.962158 
	C452.074493,110.631874 453.298859,109.312752 454.769836,107.737015 
	C454.713501,109.422012 454.410583,111.363625 454.057800,113.661171 
z"/>
<path fill="#F5F5F5" opacity="1.000000" stroke="none" 
	d="
M427.602814,161.010498 
	C428.465637,158.767105 429.687042,156.515671 431.122986,154.039459 
	C433.627625,157.814880 431.226318,159.611481 427.602814,161.010498 
z"/>
<path fill="#F5F5F5" opacity="1.000000" stroke="none" 
	d="
M482.760345,60.692833 
	C482.946930,62.371868 482.909912,63.787773 482.752686,65.611389 
	C481.764648,64.717789 480.827148,63.450432 480.148193,62.057098 
	C480.087341,61.932255 481.700836,60.991520 482.760345,60.692833 
z"/>
<path fill="#F5F5F5" opacity="1.000000" stroke="none" 
	d="
M533.918457,51.498894 
	C536.117798,51.615948 537.992493,51.615948 539.867249,51.615948 
	C539.809143,52.219761 539.751099,52.823574 539.692993,53.427383 
	C537.313110,52.972736 534.933289,52.518085 532.553406,52.063431 
	C532.610291,51.927479 532.631287,51.718456 532.730896,51.669624 
	C533.000671,51.537338 533.303894,51.473083 533.918457,51.498894 
z"/>
<path fill="#F5F5F5" opacity="1.000000" stroke="none" 
	d="
M545.626648,54.460896 
	C544.768860,54.883091 543.795471,55.035206 542.822083,55.187317 
	C542.833252,54.730957 542.844421,54.274593 542.855652,53.818233 
	C543.740784,53.942425 544.625916,54.066620 545.626648,54.460896 
z"/>
<path fill="#F5F5F5" opacity="1.000000" stroke="none" 
	d="
M514.201416,47.204445 
	C514.804138,47.568470 515.107117,47.995518 515.410095,48.422573 
	C514.962402,48.537643 514.514648,48.652706 514.066956,48.767769 
	C514.011902,48.267666 513.956848,47.767567 514.201416,47.204445 
z"/>
<path fill="#F5F5F5" opacity="1.000000" stroke="none" 
	d="
M438.532104,166.685883 
	C438.535706,167.445526 438.327667,167.984390 438.119629,168.523254 
	C437.843933,168.388947 437.568268,168.254639 437.292572,168.120346 
	C437.635223,167.568619 437.977844,167.016876 438.532104,166.685883 
z"/>
<path fill="#F5F5F5" opacity="1.000000" stroke="none" 
	d="
M440.798706,163.200165 
	C440.432220,163.805222 440.003448,164.109879 439.574677,164.414520 
	C439.460480,163.965759 439.346283,163.516983 439.232086,163.068207 
	C439.733521,163.012054 440.234955,162.955917 440.798706,163.200165 
z"/>
<path fill="#F5F5F5" opacity="1.000000" stroke="none" 
	d="
M520.601807,49.045807 
	C520.206909,49.286716 519.814087,49.284946 519.423401,49.254776 
	C519.412476,49.253929 519.424927,48.949326 519.426453,48.786366 
	C519.819031,48.790630 520.211548,48.794899 520.601807,49.045807 
z"/>
<path fill="#F5F5F5" opacity="1.000000" stroke="none" 
	d="
M467.259338,118.645721 
	C467.431641,118.956833 467.390594,119.309105 467.349548,119.661377 
	C467.104858,119.573814 466.860138,119.486259 466.615448,119.398697 
	C466.758942,119.161430 466.902466,118.924164 467.259338,118.645721 
z"/>
<path fill="#F5F5F5" opacity="1.000000" stroke="none" 
	d="
M533.347534,83.263664 
	C533.362915,83.001259 533.503967,82.857651 533.645081,82.714050 
	C533.587830,82.936852 533.530579,83.159653 533.347534,83.263664 
z"/>
<path fill="#F5F5F5" opacity="1.000000" stroke="none" 
	d="
M535.448608,78.534653 
	C535.414673,78.477638 535.482483,78.591660 535.448608,78.534653 
z"/>
<path fill="#DFDDDE" opacity="1.000000" stroke="none" 
	d="
M215.995300,106.004669 
	C216.431900,106.312401 216.874176,106.614754 217.316452,106.917114 
	C215.548660,108.326889 213.780884,109.736664 212.013092,111.146439 
	C211.679077,110.724350 211.345062,110.302261 211.011032,109.880173 
	C212.553925,108.768204 214.096817,107.656227 215.827545,106.267303 
	C216.015366,105.990349 216.000992,105.999298 215.995300,106.004669 
z"/>
<path fill="#171717" opacity="1.000000" stroke="none" 
	d="
M510.731445,122.577599 
	C513.556519,121.163696 516.091064,119.965912 518.932739,118.622986 
	C518.792236,117.011292 518.641052,115.276360 518.457397,113.169739 
	C521.013794,113.353264 523.459351,113.528831 525.609070,113.683167 
	C527.563965,117.795486 529.368347,121.591209 531.472290,126.017166 
	C528.999268,126.278419 526.638733,126.767036 524.288513,126.721481 
	C520.514526,126.648338 516.723999,126.386253 512.989990,125.855522 
	C511.685791,125.670151 508.223145,126.309700 510.731445,122.577599 
z"/>
<path fill="#464646" opacity="1.000000" stroke="none" 
	d="
M495.329590,117.865265 
	C494.982849,117.851952 495.106384,117.466705 495.070496,117.267654 
	C496.114685,116.172569 497.194702,115.276535 498.639313,114.758766 
	C499.011261,115.441826 499.018646,115.746613 499.026001,116.051392 
	C497.909424,116.660454 496.792877,117.269516 495.329590,117.865265 
z"/>
<path fill="#706F70" opacity="1.000000" stroke="none" 
	d="
M499.279938,115.937531 
	C499.018646,115.746613 499.011261,115.441826 499.001770,114.679611 
	C499.532013,114.281860 500.064331,114.341537 500.596649,114.401222 
	C500.242401,114.875374 499.888153,115.349518 499.279938,115.937531 
z"/>
<path fill="#060103" opacity="1.000000" stroke="none" 
	d="
M597.052734,139.095337 
	C597.788635,139.064331 598.524658,139.033310 599.863647,139.275131 
	C601.981873,139.360336 603.497070,139.172699 605.012268,138.985077 
	C606.064331,138.990463 607.116394,138.995865 608.619385,139.352036 
	C609.721863,140.132858 610.373352,140.562912 611.024841,140.992950 
	C611.024841,140.992966 611.112549,141.401367 611.122559,141.842468 
	C611.213379,142.593628 611.388733,142.834839 611.658691,143.007202 
	C611.734314,143.753860 611.809937,144.500534 611.847046,145.932297 
	C611.722046,147.034042 611.635681,147.450699 611.306519,147.958817 
	C611.064270,148.705124 611.064819,149.359955 611.077820,150.363068 
	C611.199951,151.159180 611.309753,151.606995 611.419556,152.054810 
	C611.274414,153.483795 611.129272,154.912766 610.621765,156.610260 
	C609.204956,155.908417 608.150574,154.938019 607.096191,153.967621 
	C606.916992,153.113159 606.737793,152.258713 606.306641,150.868332 
	C605.719666,149.842941 605.384583,149.353470 605.002197,148.591064 
	C604.265808,148.393143 603.576782,148.468140 602.507568,148.639069 
	C601.084167,148.809052 600.040894,148.883118 598.872925,148.696503 
	C598.161316,147.955872 597.574280,147.475937 597.015015,146.675507 
	C597.133484,145.935989 597.224243,145.516968 597.575317,145.017746 
	C597.602478,144.267059 597.369263,143.596573 597.044495,142.958466 
	C596.952942,142.990845 596.810425,143.122894 596.810425,143.122894 
	C596.780151,142.749786 596.750000,142.376678 596.797974,141.337463 
	C596.934998,140.146027 596.993835,139.620682 597.052734,139.095337 
z"/>
<path fill="#200202" opacity="1.000000" stroke="none" 
	d="
M598.025940,173.194580 
	C595.740295,173.174942 593.422241,173.374298 591.182739,173.043030 
	C590.067627,172.878082 589.096436,171.740845 588.411133,170.596283 
	C589.543274,169.781036 590.324280,169.412949 591.105347,169.044876 
	C592.289551,168.856476 593.473816,168.668076 595.093384,168.193222 
	C595.779419,167.669540 596.030151,167.432297 596.469055,167.190979 
	C596.657288,167.186920 597.017639,167.077454 597.375000,167.069687 
	C599.471436,166.413635 601.210571,165.765366 602.949707,165.117096 
	C603.196045,165.256958 603.406189,165.438705 603.695068,166.252792 
	C603.881897,168.228394 603.953796,169.613556 604.025696,170.998718 
	C603.523376,171.551147 603.021057,172.103577 601.863647,172.772064 
	C600.147766,172.990280 599.086853,173.092422 598.025940,173.194580 
z"/>
<path fill="#200202" opacity="1.000000" stroke="none" 
	d="
M578.196045,173.570618 
	C577.203735,170.912842 576.557068,168.329010 575.823303,165.331879 
	C575.785767,164.494339 575.835327,164.070114 575.997314,162.931259 
	C576.425476,158.819824 576.741211,155.423019 577.057007,152.026215 
	C577.057007,152.026215 576.999084,152.041229 577.400024,152.100906 
	C578.318298,153.796295 578.835693,155.432022 579.353027,157.067749 
	C579.318359,158.100357 579.283691,159.132965 579.223145,160.896545 
	C579.743896,163.160141 580.290527,164.692749 580.837158,166.225372 
	C580.837158,166.225372 580.837036,166.615646 580.888672,167.176132 
	C581.282043,169.155930 581.623779,170.575241 581.965515,171.994537 
	C580.824219,172.544540 579.682983,173.094543 578.196045,173.570618 
z"/>
<path fill="#A7170D" opacity="1.000000" stroke="none" 
	d="
M597.017639,167.077454 
	C597.017639,167.077454 596.657288,167.186920 596.146484,167.121231 
	C595.418152,167.034988 595.200562,167.014450 594.982910,166.993896 
	C594.491638,166.732117 594.000427,166.470337 593.232056,165.804977 
	C592.638245,164.928406 592.321594,164.455429 592.004883,163.982452 
	C592.284363,162.559402 592.765320,161.140274 592.793152,159.712326 
	C592.829102,157.862335 592.368286,156.003906 592.387634,154.151901 
	C592.398376,153.125122 592.951599,152.104019 593.720581,151.260712 
	C594.455994,151.626495 594.731262,151.811890 595.255615,151.998642 
	C595.504822,151.999985 596.003174,152.000214 596.016235,152.377090 
	C597.352051,154.168228 598.674744,155.582504 599.997437,156.996765 
	C599.736389,157.494064 599.475403,157.991364 598.959595,159.046082 
	C598.142395,162.094818 597.580017,164.586136 597.017639,167.077454 
z"/>
<path fill="#2F0303" opacity="1.000000" stroke="none" 
	d="
M583.117676,152.369507 
	C583.403320,151.938904 583.654236,151.761520 584.162231,151.173187 
	C584.651245,150.568420 584.821716,150.287338 584.992126,150.006256 
	C586.005249,148.914261 587.018433,147.822266 588.358521,146.241455 
	C589.232361,144.878967 589.779297,144.005310 590.326233,143.131653 
	C590.326233,143.131638 590.669250,143.153656 590.836914,143.116516 
	C591.477783,143.695953 592.457825,144.450546 592.334167,144.904572 
	C591.861755,146.639496 591.230408,148.397507 590.297241,149.926468 
	C588.468384,152.922867 586.919067,155.686859 592.447327,157.584427 
	C586.655945,159.599808 585.272705,155.503265 583.117676,152.369507 
z"/>
<path fill="#871A15" opacity="1.000000" stroke="none" 
	d="
M595.006470,151.997299 
	C594.731262,151.811890 594.455994,151.626495 594.052979,151.222504 
	C594.289551,150.683182 594.653931,150.362457 595.664551,150.021606 
	C597.206360,149.653412 598.101990,149.305313 598.997620,148.957214 
	C600.040894,148.883118 601.084167,148.809052 602.854370,148.770172 
	C604.070679,148.824905 604.560059,148.844467 605.049500,148.864014 
	C605.384583,149.353470 605.719666,149.842941 606.076294,150.635193 
	C604.209778,152.781036 602.321716,154.624100 600.215576,156.731964 
	C598.674744,155.582504 597.352051,154.168228 595.928711,152.211411 
	C595.554199,151.778336 595.280334,151.887817 595.006470,151.997299 
z"/>
<path fill="#811914" opacity="1.000000" stroke="none" 
	d="
M579.657227,156.965118 
	C578.835693,155.432022 578.318298,153.796295 577.427490,152.112762 
	C577.118591,147.413254 575.590942,142.167175 581.622314,139.737427 
	C582.164734,139.518921 582.769775,139.455765 583.593201,139.262329 
	C583.732483,144.017151 576.435669,145.984650 579.860718,151.653931 
	C579.999146,153.618011 579.980286,155.240265 579.657227,156.965118 
z"/>
<path fill="#871A15" opacity="1.000000" stroke="none" 
	d="
M597.375000,167.069687 
	C597.580017,164.586136 598.142395,162.094818 598.854248,159.307098 
	C600.518982,159.473480 602.034180,159.936279 603.656738,160.431885 
	C603.409729,161.894165 603.201599,163.126221 602.971619,164.737671 
	C601.210571,165.765366 599.471436,166.413635 597.375000,167.069687 
z"/>
<path fill="#2F0303" opacity="1.000000" stroke="none" 
	d="
M611.004272,166.010040 
	C610.970337,167.012955 610.936462,168.015854 610.544678,169.463440 
	C609.464600,169.973328 608.742249,170.038528 608.019958,170.103729 
	C607.710388,169.297607 607.400818,168.491470 607.089722,166.929871 
	C607.034424,164.779785 606.980713,163.385178 606.927002,161.990555 
	C606.927002,161.990555 607.160400,161.982132 607.598999,161.986023 
	C608.921936,161.964325 609.806274,161.938721 610.779053,162.316025 
	C610.912964,163.815964 610.958618,164.913010 611.004272,166.010040 
M609.510376,164.404633 
	C609.510376,164.404633 609.576721,164.520752 609.510376,164.404633 
z"/>
<path fill="#871A15" opacity="1.000000" stroke="none" 
	d="
M591.631470,163.945312 
	C592.321594,164.455429 592.638245,164.928406 592.973816,165.699646 
	C592.392944,166.259979 591.766724,166.787567 591.198792,166.730927 
	C589.867493,166.598175 588.536011,166.263031 587.278198,165.806946 
	C587.078430,165.734528 587.206665,164.056931 587.274841,164.050217 
	C588.594421,163.920059 589.927673,163.928329 591.631470,163.945312 
z"/>
<path fill="#2F0303" opacity="1.000000" stroke="none" 
	d="
M607.019836,154.299652 
	C608.150574,154.938019 609.204956,155.908417 610.588501,156.922287 
	C610.974487,157.139786 611.031372,157.313782 611.036804,158.020584 
	C610.913513,158.727966 610.841675,158.902527 610.413086,159.053101 
	C609.111755,159.043411 608.166992,159.057678 607.222290,159.071945 
	C607.130371,158.617416 607.038452,158.162903 606.947021,157.103394 
	C606.910034,156.328690 606.872559,156.158951 606.835083,155.989227 
	C606.871216,155.536697 606.907349,155.084183 607.019836,154.299652 
z"/>
<path fill="#060103" opacity="1.000000" stroke="none" 
	d="
M607.170166,159.442520 
	C608.166992,159.057678 609.111755,159.043411 610.451172,159.407196 
	C610.794128,160.494537 610.742432,161.203827 610.690674,161.913116 
	C609.806274,161.938721 608.921936,161.964325 607.712769,162.012451 
	C607.297974,161.294342 607.208008,160.553711 607.170166,159.442520 
z"/>
<path fill="#811914" opacity="1.000000" stroke="none" 
	d="
M611.549377,147.867355 
	C611.635681,147.450699 611.722046,147.034042 611.882629,146.306671 
	C611.987610,147.933624 612.018311,149.871307 611.734253,151.931900 
	C611.309753,151.606995 611.199951,151.159180 611.302368,150.159607 
	C611.526184,149.027710 611.537781,148.447525 611.549377,147.867355 
z"/>
<path fill="#2F0303" opacity="1.000000" stroke="none" 
	d="
M598.872925,148.696503 
	C598.101990,149.305313 597.206360,149.653412 595.917175,150.006714 
	C595.667847,149.271881 595.812012,148.531845 596.229370,147.404312 
	C596.502502,147.016830 596.987244,146.996017 596.987244,146.996002 
	C597.574280,147.475937 598.161316,147.955872 598.872925,148.696503 
z"/>
<path fill="#2F0303" opacity="1.000000" stroke="none" 
	d="
M596.653320,139.048126 
	C596.993835,139.620682 596.934998,140.146027 596.762939,141.058167 
	C595.564148,141.135681 594.478577,140.826401 593.201904,140.023254 
	C593.010803,139.529404 593.034119,139.051056 593.034119,139.051056 
	C593.034119,139.051056 593.031311,139.035507 593.042480,139.037140 
	C594.120483,139.026154 595.187195,139.013519 596.653320,139.048126 
z"/>
<path fill="#871A15" opacity="1.000000" stroke="none" 
	d="
M610.779053,162.316010 
	C610.742432,161.203827 610.794128,160.494537 610.807800,159.431168 
	C610.841675,158.902527 610.913513,158.727966 611.089294,158.290131 
	C611.315063,160.507614 611.436768,162.988403 611.281372,165.739609 
	C610.958618,164.913010 610.912964,163.815964 610.779053,162.316010 
z"/>
<path fill="#811914" opacity="1.000000" stroke="none" 
	d="
M580.892151,165.825027 
	C580.290527,164.692749 579.743896,163.160141 579.304871,161.277344 
	C579.924072,162.426331 580.435608,163.925507 580.892151,165.825027 
z"/>
<path fill="#811914" opacity="1.000000" stroke="none" 
	d="
M582.231628,171.798401 
	C581.623779,170.575241 581.282043,169.155930 580.939575,167.364532 
	C581.458435,168.529022 581.978088,170.065628 582.231628,171.798401 
z"/>
<path fill="#871A15" opacity="1.000000" stroke="none" 
	d="
M604.294556,170.763489 
	C603.953796,169.613556 603.881897,168.228394 603.812866,166.426025 
	C604.065063,167.515289 604.314270,169.021790 604.294556,170.763489 
z"/>
<path fill="#871A15" opacity="1.000000" stroke="none" 
	d="
M606.674805,162.234863 
	C606.980713,163.385178 607.034424,164.779785 607.059509,166.593414 
	C606.828064,165.501328 606.625305,163.990265 606.674805,162.234863 
z"/>
<path fill="#871A15" opacity="1.000000" stroke="none" 
	d="
M597.015015,146.675522 
	C596.987244,146.996017 596.502502,147.016830 596.260315,147.028412 
	C596.119629,145.891937 596.221130,144.743881 596.566528,143.359344 
	C596.810425,143.122894 596.952942,142.990845 597.019043,143.323975 
	C597.161743,144.137375 597.238342,144.617661 597.315002,145.097946 
	C597.224243,145.516968 597.133484,145.935989 597.015015,146.675522 
z"/>
<path fill="#871A15" opacity="1.000000" stroke="none" 
	d="
M598.262756,173.417496 
	C599.086853,173.092422 600.147766,172.990280 601.610474,172.903458 
	C600.841309,173.159332 599.670471,173.399887 598.262756,173.417496 
z"/>
<path fill="#811914" opacity="1.000000" stroke="none" 
	d="
M592.751343,139.026855 
	C593.034119,139.051056 593.010803,139.529404 592.976379,139.766449 
	C592.510864,140.008667 592.079773,140.013840 591.324951,140.026718 
	C591.490417,139.690506 591.979492,139.346588 592.751343,139.026855 
z"/>
<path fill="#871A15" opacity="1.000000" stroke="none" 
	d="
M590.745728,169.026306 
	C590.324280,169.412949 589.543274,169.781036 588.426270,170.189880 
	C588.855530,169.823013 589.620850,169.415390 590.745728,169.026306 
z"/>
<path fill="#871A15" opacity="1.000000" stroke="none" 
	d="
M608.214355,170.345703 
	C608.742249,170.038528 609.464600,169.973328 610.543091,169.839783 
	C610.069092,170.043518 609.238953,170.315598 608.214355,170.345703 
z"/>
<path fill="#871A15" opacity="1.000000" stroke="none" 
	d="
M594.990479,167.261108 
	C595.200562,167.014450 595.418152,167.034988 595.958252,167.125305 
	C596.030151,167.432297 595.779419,167.669540 595.279602,167.984406 
	C595.019653,167.884125 595.008911,167.706238 594.990479,167.261108 
z"/>
<path fill="#871A15" opacity="1.000000" stroke="none" 
	d="
M606.695557,156.093353 
	C606.872559,156.158951 606.910034,156.328690 606.910889,156.756622 
	C606.768188,156.742386 606.662109,156.469940 606.695557,156.093353 
z"/>
<path fill="#2F0303" opacity="1.000000" stroke="none" 
	d="
M611.797363,142.766235 
	C611.388733,142.834839 611.213379,142.593628 611.127075,142.051270 
	C611.285034,141.852432 611.448486,141.885880 611.859863,141.957932 
	C612.050537,142.172775 611.993286,142.349014 611.797363,142.766235 
z"/>
<path fill="#811914" opacity="1.000000" stroke="none" 
	d="
M576.761353,152.264160 
	C576.741211,155.423019 576.425476,158.819824 575.984070,162.610016 
	C576.060852,159.502960 576.263306,156.002548 576.761353,152.264160 
z"/>
<path fill="#A21910" opacity="1.000000" stroke="none" 
	d="
M589.966919,143.111053 
	C589.779297,144.005310 589.232361,144.878967 588.420776,145.919205 
	C588.639954,145.087341 589.123779,144.088913 589.966919,143.111053 
z"/>
<path fill="#A21910" opacity="1.000000" stroke="none" 
	d="
M584.768921,150.118347 
	C584.821716,150.287338 584.651245,150.568420 584.254333,150.957642 
	C584.200439,150.787338 584.373047,150.508896 584.768921,150.118347 
z"/>
<path fill="#010101" opacity="1.000000" stroke="none" 
	d="
M479.221069,204.632446 
	C479.663208,205.848282 479.864502,206.683975 480.065796,207.519653 
	C479.230164,207.476776 478.394501,207.433914 477.558868,207.391052 
	C477.788116,206.131805 478.009338,204.870926 478.263611,203.616730 
	C478.281494,203.528442 478.542786,203.489532 478.690918,203.427689 
	C478.787323,203.702576 478.883759,203.977448 479.221069,204.632446 
z"/>
<path fill="#010101" opacity="1.000000" stroke="none" 
	d="
M489.315796,203.766571 
	C489.708344,202.782410 490.427002,202.178406 491.145691,201.574402 
	C491.541321,202.182831 491.936981,202.791275 492.332611,203.399719 
	C491.435699,203.648712 490.538818,203.897736 489.315796,203.766571 
z"/>
<path fill="#010101" opacity="1.000000" stroke="none" 
	d="
M491.157593,204.867096 
	C491.461700,205.941864 491.246582,206.930878 491.031433,207.919891 
	C490.398071,207.624893 489.764709,207.329895 489.131348,207.034897 
	C489.633698,206.283707 490.136047,205.532532 491.157593,204.867096 
z"/>
<path fill="#F5F5F5" opacity="1.000000" stroke="none" 
	d="
M441.352142,129.507721 
	C440.968719,128.969086 441.025299,128.434052 441.530151,127.906830 
	C441.916321,128.446869 441.854248,128.979080 441.352142,129.507721 
z"/>
<path fill="#2F0303" opacity="1.000000" stroke="none" 
	d="
M604.766968,138.739700 
	C603.497070,139.172699 601.981873,139.360336 600.232056,139.285004 
	C601.505554,138.846130 603.013672,138.670227 604.766968,138.739700 
z"/>
<path fill="#2F0303" opacity="1.000000" stroke="none" 
	d="
M610.988037,140.667511 
	C610.373352,140.562912 609.721863,140.132858 609.012085,139.391281 
	C609.619629,139.500519 610.285400,139.921295 610.988037,140.667511 
z"/>
<path fill="#F5F5F5" opacity="1.000000" stroke="none" 
	d="
M450.658264,111.848518 
	C450.774292,112.192032 450.567627,112.491066 450.100525,112.887283 
	C450.005249,112.590988 450.170380,112.197510 450.658264,111.848518 
z"/>
<path fill="#2F0303" opacity="1.000000" stroke="none" 
	d="
M597.575317,145.017746 
	C597.238342,144.617661 597.161743,144.137375 597.110596,143.291595 
	C597.369263,143.596573 597.602478,144.267059 597.575317,145.017746 
z"/>
<path fill="#2F0303" opacity="1.000000" stroke="none" 
	d="
M605.002197,148.591080 
	C604.560059,148.844467 604.070679,148.824905 603.234497,148.674240 
	C603.576782,148.468140 604.265808,148.393143 605.002197,148.591080 
z"/>
<path fill="#2F0303" opacity="1.000000" stroke="none" 
	d="
M611.306519,147.958817 
	C611.537781,148.447525 611.526184,149.027710 611.290039,149.811340 
	C611.064819,149.359955 611.064270,148.705124 611.306519,147.958817 
z"/>
<path fill="#A21910" opacity="1.000000" stroke="none" 
	d="
M595.255615,151.998642 
	C595.280334,151.887817 595.554199,151.778336 595.915649,151.834534 
	C596.003174,152.000214 595.504822,151.999985 595.255615,151.998642 
z"/>
<path fill="#060103" opacity="1.000000" stroke="none" 
	d="
M609.543579,164.462692 
	C609.576721,164.520752 609.510376,164.404633 609.543579,164.462692 
z"/>
</svg>